<svg xmlns="http://www.w3.org/2000/svg" xmlns:xlink="http://www.w3.org/1999/xlink" width="300" zoomAndPan="magnify" viewBox="0 0 224.87999 60" height="80" preserveAspectRatio="xMidYMid meet" version="1.2"><defs><clipPath id="ff4e4bb36d"><path d="M 64 0.015625 L 160 0.015625 L 160 53 L 64 53 Z M 64 0.015625 "/></clipPath><filter x="0%" y="0%" width="100%" filterUnits="objectBoundingBox" id="1fd8212ef2" height="100%"><feColorMatrix values="0 0 0 0 1 0 0 0 0 1 0 0 0 0 1 0 0 0 1 0" type="matrix" in="SourceGraphic"/></filter><clipPath id="3f798d1992"><path d="M 3 0.015625 L 13 0.015625 L 13 37 L 3 37 Z M 3 0.015625 "/></clipPath><clipPath id="62b887cda9"><path d="M 30 0.015625 L 45 0.015625 L 45 48 L 30 48 Z M 30 0.015625 "/></clipPath><clipPath id="9664a1b940"><rect x="0" width="96" y="0" height="53"/></clipPath><clipPath id="7979c3827d"><path d="M 102 54 L 108 54 L 108 59.984375 L 102 59.984375 Z M 102 54 "/></clipPath></defs><g id="0c82b2cb18"><g clip-rule="nonzero" clip-path="url(#ff4e4bb36d)"><g mask="url(#79359febeb)" transform="matrix(1,0,0,1,64,-0.000000000000011803)"><g clip-path="url(#9664a1b940)"><g clip-rule="nonzero" clip-path="url(#3f798d1992)"><g style="fill:#ffffff;fill-opacity:1;"><g transform="translate(0.79792, 36.016622)"><path style="stroke:none" d="M 11.25 -35.96875 L 11.25 0 L 3.03125 0 L 3.03125 -35.96875 Z M 11.25 -35.96875 "/></g></g></g><g style="fill:#ffffff;fill-opacity:1;"><g transform="translate(11.069759, 36.016622)"><path style="stroke:none" d="M 10.015625 -24.96875 L 10.015625 -10.53125 C 10.015625 -9.570312 10.253906 -8.773438 10.734375 -8.140625 C 11.210938 -7.503906 11.914062 -7.1875 12.84375 -7.1875 C 13.769531 -7.1875 14.472656 -7.503906 14.953125 -8.140625 C 15.429688 -8.773438 15.671875 -9.570312 15.671875 -10.53125 L 15.671875 -24.96875 L 23.578125 -24.96875 L 23.578125 -10.484375 C 23.578125 -8.867188 23.335938 -7.382812 22.859375 -6.03125 C 22.378906 -4.675781 21.6875 -3.507812 20.78125 -2.53125 C 19.875 -1.5625 18.75 -0.796875 17.40625 -0.234375 C 16.070312 0.328125 14.550781 0.609375 12.84375 0.609375 C 11.132812 0.609375 9.609375 0.335938 8.265625 -0.203125 C 6.929688 -0.753906 5.8125 -1.523438 4.90625 -2.515625 C 4 -3.503906 3.304688 -4.675781 2.828125 -6.03125 C 2.347656 -7.382812 2.109375 -8.867188 2.109375 -10.484375 L 2.109375 -24.96875 Z M 10.015625 -24.96875 "/></g></g><g clip-rule="nonzero" clip-path="url(#62b887cda9)"><g style="fill:#ffffff;fill-opacity:1;"><g transform="translate(32.744778, 36.016622)"><path style="stroke:none" d="M 11.65625 -31.90625 C 11.65625 -30.570312 11.203125 -29.457031 10.296875 -28.5625 C 9.390625 -27.675781 8.285156 -27.234375 6.984375 -27.234375 C 5.679688 -27.234375 4.578125 -27.675781 3.671875 -28.5625 C 2.765625 -29.457031 2.3125 -30.570312 2.3125 -31.90625 C 2.3125 -33.238281 2.765625 -34.347656 3.671875 -35.234375 C 4.578125 -36.128906 5.679688 -36.578125 6.984375 -36.578125 C 8.285156 -36.578125 9.390625 -36.128906 10.296875 -35.234375 C 11.203125 -34.347656 11.65625 -33.238281 11.65625 -31.90625 Z M 11.09375 -24.96875 L 11.09375 0.921875 C 11.09375 2.734375 10.878906 4.289062 10.453125 5.59375 C 10.023438 6.894531 9.304688 7.957031 8.296875 8.78125 C 7.285156 9.601562 5.957031 10.210938 4.3125 10.609375 C 2.664062 11.003906 0.613281 11.203125 -1.84375 11.203125 L -1.84375 3.59375 C -0.925781 3.59375 -0.171875 3.566406 0.421875 3.515625 C 1.023438 3.460938 1.507812 3.347656 1.875 3.171875 C 2.238281 3.003906 2.492188 2.75 2.640625 2.40625 C 2.796875 2.070312 2.875 1.59375 2.875 0.96875 L 2.875 -24.96875 Z M 11.09375 -24.96875 "/></g></g></g><g style="fill:#ffffff;fill-opacity:1;"><g transform="translate(43.016617, 36.016622)"><path style="stroke:none" d="M 29.28125 0 L 21.0625 0 L 21.0625 -11.71875 C 21.0625 -13.769531 20.582031 -15.34375 19.625 -16.4375 C 18.664062 -17.53125 17.210938 -18.078125 15.265625 -18.078125 C 14.503906 -18.078125 13.78125 -17.929688 13.09375 -17.640625 C 12.414062 -17.347656 11.816406 -16.960938 11.296875 -16.484375 C 10.785156 -16.003906 10.375 -15.429688 10.0625 -14.765625 C 9.757812 -14.097656 9.609375 -13.390625 9.609375 -12.640625 C 9.609375 -10.890625 10.128906 -9.492188 11.171875 -8.453125 C 12.210938 -7.410156 13.523438 -6.890625 15.109375 -6.890625 C 15.859375 -6.890625 16.554688 -6.957031 17.203125 -7.09375 C 17.859375 -7.226562 18.460938 -7.398438 19.015625 -7.609375 L 19.015625 -0.828125 C 18.222656 -0.273438 17.378906 0.0976562 16.484375 0.296875 C 15.597656 0.503906 14.585938 0.609375 13.453125 0.609375 C 11.910156 0.609375 10.410156 0.296875 8.953125 -0.328125 C 7.503906 -0.960938 6.222656 -1.851562 5.109375 -3 C 3.992188 -4.144531 3.09375 -5.515625 2.40625 -7.109375 C 1.726562 -8.703125 1.390625 -10.476562 1.390625 -12.4375 C 1.390625 -14.28125 1.726562 -16 2.40625 -17.59375 C 3.09375 -19.1875 4.035156 -20.570312 5.234375 -21.75 C 6.429688 -22.9375 7.867188 -23.867188 9.546875 -24.546875 C 11.234375 -25.234375 13.085938 -25.578125 15.109375 -25.578125 C 17.265625 -25.578125 19.210938 -25.273438 20.953125 -24.671875 C 22.703125 -24.078125 24.191406 -23.25 25.421875 -22.1875 C 26.660156 -21.125 27.613281 -19.863281 28.28125 -18.40625 C 28.945312 -16.957031 29.28125 -15.378906 29.28125 -13.671875 Z M 29.28125 0 "/></g></g><g style="fill:#ffffff;fill-opacity:1;"><g transform="translate(70.393237, 36.016622)"><path style="stroke:none" d="M 23.578125 0 L 15.671875 0 L 15.671875 -14.4375 C 15.671875 -15.394531 15.429688 -16.191406 14.953125 -16.828125 C 14.472656 -17.460938 13.769531 -17.78125 12.84375 -17.78125 C 11.914062 -17.78125 11.210938 -17.460938 10.734375 -16.828125 C 10.253906 -16.191406 10.015625 -15.394531 10.015625 -14.4375 L 10.015625 0 L 2.109375 0 L 2.109375 -14.484375 C 2.109375 -16.097656 2.347656 -17.582031 2.828125 -18.9375 C 3.304688 -20.289062 4.003906 -21.460938 4.921875 -22.453125 C 5.847656 -23.441406 6.972656 -24.207031 8.296875 -24.75 C 9.617188 -25.300781 11.132812 -25.578125 12.84375 -25.578125 C 14.550781 -25.578125 16.070312 -25.296875 17.40625 -24.734375 C 18.75 -24.171875 19.875 -23.398438 20.78125 -22.421875 C 21.6875 -21.453125 22.378906 -20.28125 22.859375 -18.90625 C 23.335938 -17.53125 23.578125 -16.054688 23.578125 -14.484375 Z M 23.578125 0 "/></g></g></g><mask id="79359febeb"><g filter="url(#1fd8212ef2)"><rect x="0" width="224.87999" y="0" height="60" style="fill:#000000;fill-opacity:0.85;stroke:none;"/></g></mask></g></g><g style="fill:#ffffff;fill-opacity:1;"><g transform="translate(68.36952, 57.77909)"><path style="stroke:none" d="M 2.375 0 L 2.375 -4.390625 L 0.03125 -4.390625 L 0.03125 -4.90625 L 5.296875 -4.90625 L 5.296875 -4.390625 L 2.953125 -4.390625 L 2.953125 0 Z M 2.375 0 "/></g></g><g style="fill:#ffffff;fill-opacity:1;"><g transform="translate(74.218376, 57.77909)"><path style="stroke:none" d="M 2.25 0.140625 C 1.625 0.140625 1.132812 -0.015625 0.78125 -0.328125 C 0.425781 -0.640625 0.25 -1.070312 0.25 -1.625 L 0.25 -3.515625 L 0.78125 -3.515625 L 0.78125 -1.671875 C 0.78125 -1.253906 0.914062 -0.925781 1.1875 -0.6875 C 1.46875 -0.457031 1.851562 -0.34375 2.34375 -0.34375 C 2.957031 -0.34375 3.4375 -0.488281 3.78125 -0.78125 C 4.125 -1.082031 4.296875 -1.5 4.296875 -2.03125 L 4.296875 -3.515625 L 4.828125 -3.515625 L 4.828125 0 L 4.34375 0 L 4.296875 -0.859375 L 4.28125 -0.859375 C 4.125 -0.546875 3.863281 -0.300781 3.5 -0.125 C 3.144531 0.0507812 2.726562 0.140625 2.25 0.140625 Z M 2.25 0.140625 "/></g></g><g style="fill:#ffffff;fill-opacity:1;"><g transform="translate(79.844418, 57.77909)"><path style="stroke:none" d=""/></g></g><g style="fill:#ffffff;fill-opacity:1;"><g transform="translate(82.546028, 57.77909)"><path style="stroke:none" d="M 2.65625 0.140625 C 2.175781 0.140625 1.75 0.0625 1.375 -0.09375 C 1.007812 -0.25 0.722656 -0.46875 0.515625 -0.75 C 0.304688 -1.039062 0.203125 -1.375 0.203125 -1.75 C 0.203125 -2.132812 0.304688 -2.46875 0.515625 -2.75 C 0.734375 -3.039062 1.023438 -3.265625 1.390625 -3.421875 C 1.753906 -3.578125 2.171875 -3.65625 2.640625 -3.65625 C 3.003906 -3.65625 3.332031 -3.609375 3.625 -3.515625 C 3.925781 -3.421875 4.179688 -3.289062 4.390625 -3.125 C 4.609375 -2.957031 4.765625 -2.757812 4.859375 -2.53125 L 4.375 -2.359375 C 4.269531 -2.609375 4.066406 -2.8125 3.765625 -2.96875 C 3.472656 -3.125 3.117188 -3.203125 2.703125 -3.203125 C 2.316406 -3.203125 1.972656 -3.140625 1.671875 -3.015625 C 1.378906 -2.898438 1.148438 -2.734375 0.984375 -2.515625 C 0.816406 -2.296875 0.734375 -2.039062 0.734375 -1.75 C 0.734375 -1.46875 0.816406 -1.21875 0.984375 -1 C 1.148438 -0.78125 1.382812 -0.609375 1.6875 -0.484375 C 1.988281 -0.367188 2.332031 -0.3125 2.71875 -0.3125 C 3.050781 -0.3125 3.363281 -0.359375 3.65625 -0.453125 C 3.945312 -0.554688 4.191406 -0.695312 4.390625 -0.875 C 4.597656 -1.050781 4.742188 -1.253906 4.828125 -1.484375 L 5.328125 -1.328125 C 5.210938 -1.035156 5.023438 -0.78125 4.765625 -0.5625 C 4.515625 -0.34375 4.207031 -0.171875 3.84375 -0.046875 C 3.476562 0.078125 3.082031 0.140625 2.65625 0.140625 Z M 2.65625 0.140625 "/></g></g><g style="fill:#ffffff;fill-opacity:1;"><g transform="translate(88.534136, 57.77909)"><path style="stroke:none" d="M 2.765625 -4.171875 L 2.625 -4.390625 L 4.0625 -5.34375 L 4.203125 -5.109375 Z M 2.78125 0.140625 C 2.257812 0.140625 1.804688 0.0625 1.421875 -0.09375 C 1.035156 -0.25 0.734375 -0.46875 0.515625 -0.75 C 0.304688 -1.039062 0.203125 -1.375 0.203125 -1.75 C 0.203125 -2.132812 0.304688 -2.46875 0.515625 -2.75 C 0.734375 -3.039062 1.035156 -3.265625 1.421875 -3.421875 C 1.804688 -3.578125 2.257812 -3.65625 2.78125 -3.65625 C 3.300781 -3.65625 3.753906 -3.578125 4.140625 -3.421875 C 4.523438 -3.265625 4.820312 -3.039062 5.03125 -2.75 C 5.25 -2.46875 5.359375 -2.132812 5.359375 -1.75 C 5.359375 -1.375 5.25 -1.039062 5.03125 -0.75 C 4.820312 -0.46875 4.523438 -0.25 4.140625 -0.09375 C 3.753906 0.0625 3.300781 0.140625 2.78125 0.140625 Z M 2.78125 -0.34375 C 3.195312 -0.34375 3.554688 -0.398438 3.859375 -0.515625 C 4.160156 -0.628906 4.394531 -0.789062 4.5625 -1 C 4.738281 -1.21875 4.828125 -1.46875 4.828125 -1.75 C 4.828125 -2.039062 4.738281 -2.289062 4.5625 -2.5 C 4.394531 -2.71875 4.160156 -2.882812 3.859375 -3 C 3.554688 -3.113281 3.195312 -3.171875 2.78125 -3.171875 C 2.375 -3.171875 2.015625 -3.113281 1.703125 -3 C 1.398438 -2.882812 1.160156 -2.71875 0.984375 -2.5 C 0.816406 -2.289062 0.734375 -2.039062 0.734375 -1.75 C 0.734375 -1.46875 0.816406 -1.21875 0.984375 -1 C 1.160156 -0.789062 1.398438 -0.628906 1.703125 -0.515625 C 2.015625 -0.398438 2.375 -0.34375 2.78125 -0.34375 Z M 2.78125 -0.34375 "/></g></g><g style="fill:#ffffff;fill-opacity:1;"><g transform="translate(94.619733, 57.77909)"><path style="stroke:none" d="M 2.71875 0.140625 C 2.21875 0.140625 1.78125 0.0625 1.40625 -0.09375 C 1.03125 -0.25 0.734375 -0.46875 0.515625 -0.75 C 0.304688 -1.039062 0.203125 -1.375 0.203125 -1.75 C 0.203125 -2.132812 0.304688 -2.46875 0.515625 -2.75 C 0.734375 -3.039062 1.03125 -3.265625 1.40625 -3.421875 C 1.78125 -3.578125 2.21875 -3.65625 2.71875 -3.65625 C 3.039062 -3.65625 3.335938 -3.613281 3.609375 -3.53125 C 3.890625 -3.457031 4.128906 -3.347656 4.328125 -3.203125 C 4.535156 -3.066406 4.691406 -2.90625 4.796875 -2.71875 L 4.8125 -2.71875 L 4.8125 -5.125 L 5.34375 -5.125 L 5.34375 0 L 4.875 0 L 4.828125 -0.8125 L 4.8125 -0.8125 C 4.707031 -0.613281 4.550781 -0.441406 4.34375 -0.296875 C 4.144531 -0.160156 3.90625 -0.0546875 3.625 0.015625 C 3.351562 0.0976562 3.050781 0.140625 2.71875 0.140625 Z M 2.78125 -0.34375 C 3.1875 -0.34375 3.539062 -0.398438 3.84375 -0.515625 C 4.15625 -0.640625 4.394531 -0.804688 4.5625 -1.015625 C 4.738281 -1.234375 4.828125 -1.476562 4.828125 -1.75 C 4.828125 -2.039062 4.738281 -2.289062 4.5625 -2.5 C 4.394531 -2.707031 4.15625 -2.867188 3.84375 -2.984375 C 3.539062 -3.109375 3.1875 -3.171875 2.78125 -3.171875 C 2.375 -3.171875 2.015625 -3.109375 1.703125 -2.984375 C 1.398438 -2.867188 1.160156 -2.707031 0.984375 -2.5 C 0.816406 -2.289062 0.734375 -2.039062 0.734375 -1.75 C 0.734375 -1.476562 0.816406 -1.234375 0.984375 -1.015625 C 1.160156 -0.804688 1.398438 -0.640625 1.703125 -0.515625 C 2.015625 -0.398438 2.375 -0.34375 2.78125 -0.34375 Z M 2.78125 -0.34375 "/></g></g><g style="fill:#ffffff;fill-opacity:1;"><g transform="translate(100.761029, 57.77909)"><path style="stroke:none" d="M 0.625 -4.203125 C 0.507812 -4.203125 0.414062 -4.238281 0.34375 -4.3125 C 0.269531 -4.382812 0.234375 -4.476562 0.234375 -4.59375 C 0.234375 -4.707031 0.269531 -4.796875 0.34375 -4.859375 C 0.414062 -4.929688 0.507812 -4.96875 0.625 -4.96875 C 0.75 -4.96875 0.847656 -4.929688 0.921875 -4.859375 C 0.992188 -4.796875 1.03125 -4.707031 1.03125 -4.59375 C 1.03125 -4.476562 0.992188 -4.382812 0.921875 -4.3125 C 0.847656 -4.238281 0.75 -4.203125 0.625 -4.203125 Z M 0.359375 0 L 0.359375 -3.515625 L 0.890625 -3.515625 L 0.890625 0 Z M 0.359375 0 "/></g></g><g clip-rule="nonzero" clip-path="url(#7979c3827d)"><g style="fill:#ffffff;fill-opacity:1;"><g transform="translate(102.54353, 57.77909)"><path style="stroke:none" d="M 2.46875 1.609375 C 1.925781 1.609375 1.429688 1.546875 0.984375 1.421875 C 0.535156 1.296875 0.164062 1.125 -0.125 0.90625 L 0.1875 0.484375 C 0.46875 0.679688 0.804688 0.835938 1.203125 0.953125 C 1.609375 1.066406 2.03125 1.125 2.46875 1.125 C 2.925781 1.125 3.316406 1.0625 3.640625 0.9375 C 3.960938 0.820312 4.210938 0.648438 4.390625 0.421875 C 4.566406 0.203125 4.65625 -0.0546875 4.65625 -0.359375 L 4.65625 -0.71875 L 4.640625 -0.71875 C 4.546875 -0.550781 4.398438 -0.398438 4.203125 -0.265625 C 4.003906 -0.140625 3.773438 -0.0390625 3.515625 0.03125 C 3.253906 0.101562 2.972656 0.140625 2.671875 0.140625 C 2.179688 0.140625 1.753906 0.0625 1.390625 -0.09375 C 1.023438 -0.25 0.738281 -0.46875 0.53125 -0.75 C 0.320312 -1.039062 0.21875 -1.375 0.21875 -1.75 C 0.21875 -2.125 0.320312 -2.453125 0.53125 -2.734375 C 0.738281 -3.023438 1.023438 -3.25 1.390625 -3.40625 C 1.753906 -3.570312 2.175781 -3.65625 2.65625 -3.65625 C 2.957031 -3.65625 3.238281 -3.613281 3.5 -3.53125 C 3.769531 -3.457031 4.003906 -3.347656 4.203125 -3.203125 C 4.398438 -3.066406 4.546875 -2.90625 4.640625 -2.71875 L 4.65625 -2.71875 L 4.71875 -3.515625 L 5.1875 -3.515625 L 5.1875 -0.359375 C 5.1875 0.046875 5.078125 0.394531 4.859375 0.6875 C 4.640625 0.976562 4.328125 1.203125 3.921875 1.359375 C 3.515625 1.523438 3.03125 1.609375 2.46875 1.609375 Z M 2.703125 -0.34375 C 3.097656 -0.34375 3.441406 -0.398438 3.734375 -0.515625 C 4.035156 -0.640625 4.265625 -0.804688 4.421875 -1.015625 C 4.585938 -1.222656 4.671875 -1.46875 4.671875 -1.75 C 4.671875 -2.03125 4.585938 -2.273438 4.421875 -2.484375 C 4.253906 -2.703125 4.023438 -2.867188 3.734375 -2.984375 C 3.441406 -3.109375 3.097656 -3.171875 2.703125 -3.171875 C 2.316406 -3.171875 1.976562 -3.109375 1.6875 -2.984375 C 1.394531 -2.867188 1.164062 -2.703125 1 -2.484375 C 0.832031 -2.273438 0.75 -2.03125 0.75 -1.75 C 0.75 -1.46875 0.832031 -1.222656 1 -1.015625 C 1.164062 -0.804688 1.394531 -0.640625 1.6875 -0.515625 C 1.988281 -0.398438 2.328125 -0.34375 2.703125 -0.34375 Z M 2.703125 -0.34375 "/></g></g></g><g style="fill:#ffffff;fill-opacity:1;"><g transform="translate(108.531638, 57.77909)"><path style="stroke:none" d="M 2.78125 0.140625 C 2.257812 0.140625 1.804688 0.0625 1.421875 -0.09375 C 1.035156 -0.25 0.734375 -0.46875 0.515625 -0.75 C 0.304688 -1.039062 0.203125 -1.375 0.203125 -1.75 C 0.203125 -2.132812 0.304688 -2.46875 0.515625 -2.75 C 0.734375 -3.039062 1.035156 -3.265625 1.421875 -3.421875 C 1.804688 -3.578125 2.257812 -3.65625 2.78125 -3.65625 C 3.300781 -3.65625 3.753906 -3.578125 4.140625 -3.421875 C 4.523438 -3.265625 4.820312 -3.039062 5.03125 -2.75 C 5.25 -2.46875 5.359375 -2.132812 5.359375 -1.75 C 5.359375 -1.375 5.25 -1.039062 5.03125 -0.75 C 4.820312 -0.46875 4.523438 -0.25 4.140625 -0.09375 C 3.753906 0.0625 3.300781 0.140625 2.78125 0.140625 Z M 2.78125 -0.34375 C 3.195312 -0.34375 3.554688 -0.398438 3.859375 -0.515625 C 4.160156 -0.628906 4.394531 -0.789062 4.5625 -1 C 4.738281 -1.21875 4.828125 -1.46875 4.828125 -1.75 C 4.828125 -2.039062 4.738281 -2.289062 4.5625 -2.5 C 4.394531 -2.71875 4.160156 -2.882812 3.859375 -3 C 3.554688 -3.113281 3.195312 -3.171875 2.78125 -3.171875 C 2.375 -3.171875 2.015625 -3.113281 1.703125 -3 C 1.398438 -2.882812 1.160156 -2.71875 0.984375 -2.5 C 0.816406 -2.289062 0.734375 -2.039062 0.734375 -1.75 C 0.734375 -1.46875 0.816406 -1.21875 0.984375 -1 C 1.160156 -0.789062 1.398438 -0.628906 1.703125 -0.515625 C 2.015625 -0.398438 2.375 -0.34375 2.78125 -0.34375 Z M 2.78125 -0.34375 "/></g></g><g style="fill:#ffffff;fill-opacity:1;"><g transform="translate(114.617235, 57.77909)"><path style="stroke:none" d="M 0.21875 0.921875 L 0.296875 0.671875 C 0.410156 0.703125 0.515625 0.691406 0.609375 0.640625 C 0.710938 0.597656 0.789062 0.519531 0.84375 0.40625 C 0.90625 0.300781 0.929688 0.179688 0.921875 0.046875 C 0.765625 0.0976562 0.632812 0.0820312 0.53125 0 C 0.425781 -0.0703125 0.375 -0.171875 0.375 -0.296875 C 0.375 -0.410156 0.410156 -0.5 0.484375 -0.5625 C 0.554688 -0.632812 0.644531 -0.671875 0.75 -0.671875 C 0.882812 -0.671875 0.988281 -0.617188 1.0625 -0.515625 C 1.144531 -0.410156 1.1875 -0.238281 1.1875 0 C 1.1875 0.332031 1.09375 0.585938 0.90625 0.765625 C 0.726562 0.941406 0.5 0.992188 0.21875 0.921875 Z M 0.21875 0.921875 "/></g></g><g style="fill:#ffffff;fill-opacity:1;"><g transform="translate(116.545956, 57.77909)"><path style="stroke:none" d=""/></g></g><g style="fill:#ffffff;fill-opacity:1;"><g transform="translate(119.247566, 57.77909)"><path style="stroke:none" d="M 2.71875 0.140625 C 2.257812 0.140625 1.90625 0.0195312 1.65625 -0.21875 C 1.40625 -0.457031 1.28125 -0.789062 1.28125 -1.21875 L 1.28125 -3.078125 L 0 -3.078125 L 0 -3.515625 L 1.265625 -3.515625 L 1.265625 -4.640625 L 1.8125 -4.765625 L 1.8125 -3.515625 L 4.109375 -3.515625 L 4.109375 -3.078125 L 1.8125 -3.078125 L 1.8125 -1.25 C 1.8125 -0.957031 1.890625 -0.726562 2.046875 -0.5625 C 2.203125 -0.40625 2.429688 -0.328125 2.734375 -0.328125 C 2.984375 -0.328125 3.207031 -0.394531 3.40625 -0.53125 C 3.613281 -0.675781 3.753906 -0.863281 3.828125 -1.09375 L 4.28125 -0.875 C 4.175781 -0.570312 3.976562 -0.328125 3.6875 -0.140625 C 3.40625 0.046875 3.082031 0.140625 2.71875 0.140625 Z M 2.71875 0.140625 "/></g></g><g style="fill:#ffffff;fill-opacity:1;"><g transform="translate(124.170354, 57.77909)"><path style="stroke:none" d="M 2.25 0.140625 C 1.625 0.140625 1.132812 -0.015625 0.78125 -0.328125 C 0.425781 -0.640625 0.25 -1.070312 0.25 -1.625 L 0.25 -3.515625 L 0.78125 -3.515625 L 0.78125 -1.671875 C 0.78125 -1.253906 0.914062 -0.925781 1.1875 -0.6875 C 1.46875 -0.457031 1.851562 -0.34375 2.34375 -0.34375 C 2.957031 -0.34375 3.4375 -0.488281 3.78125 -0.78125 C 4.125 -1.082031 4.296875 -1.5 4.296875 -2.03125 L 4.296875 -3.515625 L 4.828125 -3.515625 L 4.828125 0 L 4.34375 0 L 4.296875 -0.859375 L 4.28125 -0.859375 C 4.125 -0.546875 3.863281 -0.300781 3.5 -0.125 C 3.144531 0.0507812 2.726562 0.140625 2.25 0.140625 Z M 2.25 0.140625 "/></g></g><g style="fill:#ffffff;fill-opacity:1;"><g transform="translate(129.796397, 57.77909)"><path style="stroke:none" d=""/></g></g><g style="fill:#ffffff;fill-opacity:1;"><g transform="translate(132.498007, 57.77909)"><path style="stroke:none" d="M 2.859375 0.140625 C 2.347656 0.140625 1.894531 0.0546875 1.5 -0.109375 C 1.101562 -0.273438 0.785156 -0.503906 0.546875 -0.796875 C 0.316406 -1.085938 0.203125 -1.421875 0.203125 -1.796875 C 0.203125 -2.160156 0.304688 -2.476562 0.515625 -2.75 C 0.734375 -3.03125 1.023438 -3.25 1.390625 -3.40625 C 1.765625 -3.570312 2.191406 -3.65625 2.671875 -3.65625 C 3.140625 -3.65625 3.554688 -3.570312 3.921875 -3.40625 C 4.285156 -3.25 4.570312 -3.03125 4.78125 -2.75 C 4.988281 -2.46875 5.09375 -2.148438 5.09375 -1.796875 C 5.09375 -1.753906 5.09375 -1.707031 5.09375 -1.65625 C 5.09375 -1.613281 5.085938 -1.570312 5.078125 -1.53125 L 0.828125 -1.53125 C 0.859375 -1.300781 0.96875 -1.097656 1.15625 -0.921875 C 1.351562 -0.753906 1.601562 -0.617188 1.90625 -0.515625 C 2.207031 -0.421875 2.539062 -0.375 2.90625 -0.375 C 3.207031 -0.375 3.492188 -0.40625 3.765625 -0.46875 C 4.046875 -0.53125 4.296875 -0.613281 4.515625 -0.71875 C 4.734375 -0.832031 4.910156 -0.957031 5.046875 -1.09375 L 5.359375 -0.703125 C 5.191406 -0.546875 4.976562 -0.398438 4.71875 -0.265625 C 4.457031 -0.140625 4.164062 -0.0390625 3.84375 0.03125 C 3.519531 0.101562 3.191406 0.140625 2.859375 0.140625 Z M 0.8125 -2 L 4.515625 -2 C 4.492188 -2.238281 4.394531 -2.441406 4.21875 -2.609375 C 4.050781 -2.785156 3.828125 -2.914062 3.546875 -3 C 3.273438 -3.09375 2.972656 -3.140625 2.640625 -3.140625 C 2.304688 -3.140625 2.003906 -3.085938 1.734375 -2.984375 C 1.472656 -2.890625 1.257812 -2.753906 1.09375 -2.578125 C 0.925781 -2.410156 0.832031 -2.21875 0.8125 -2 Z M 0.8125 -2 "/></g></g><g style="fill:#ffffff;fill-opacity:1;"><g transform="translate(138.562709, 57.77909)"><path style="stroke:none" d="M 2.6875 0.140625 C 2.269531 0.140625 1.882812 0.0859375 1.53125 -0.015625 C 1.175781 -0.128906 0.878906 -0.28125 0.640625 -0.46875 C 0.410156 -0.65625 0.253906 -0.863281 0.171875 -1.09375 L 0.625 -1.34375 C 0.6875 -1.144531 0.8125 -0.96875 1 -0.8125 C 1.195312 -0.664062 1.4375 -0.550781 1.71875 -0.46875 C 2.007812 -0.382812 2.328125 -0.34375 2.671875 -0.34375 C 2.953125 -0.34375 3.203125 -0.367188 3.421875 -0.421875 C 3.648438 -0.472656 3.828125 -0.546875 3.953125 -0.640625 C 4.085938 -0.734375 4.15625 -0.84375 4.15625 -0.96875 C 4.15625 -1.132812 4.054688 -1.257812 3.859375 -1.34375 C 3.660156 -1.425781 3.390625 -1.484375 3.046875 -1.515625 L 2.03125 -1.609375 C 1.75 -1.640625 1.492188 -1.691406 1.265625 -1.765625 C 1.035156 -1.835938 0.851562 -1.9375 0.71875 -2.0625 C 0.59375 -2.195312 0.53125 -2.367188 0.53125 -2.578125 C 0.53125 -2.796875 0.609375 -2.988281 0.765625 -3.15625 C 0.921875 -3.320312 1.132812 -3.445312 1.40625 -3.53125 C 1.6875 -3.613281 2 -3.65625 2.34375 -3.65625 C 2.632812 -3.65625 2.914062 -3.613281 3.1875 -3.53125 C 3.457031 -3.457031 3.691406 -3.351562 3.890625 -3.21875 C 4.085938 -3.09375 4.234375 -2.945312 4.328125 -2.78125 L 3.921875 -2.484375 C 3.847656 -2.617188 3.726562 -2.738281 3.5625 -2.84375 C 3.40625 -2.957031 3.21875 -3.046875 3 -3.109375 C 2.789062 -3.171875 2.566406 -3.203125 2.328125 -3.203125 C 1.960938 -3.203125 1.660156 -3.144531 1.421875 -3.03125 C 1.179688 -2.925781 1.0625 -2.785156 1.0625 -2.609375 C 1.0625 -2.453125 1.144531 -2.335938 1.3125 -2.265625 C 1.488281 -2.203125 1.742188 -2.148438 2.078125 -2.109375 L 3.140625 -2 C 3.421875 -1.96875 3.675781 -1.914062 3.90625 -1.84375 C 4.144531 -1.78125 4.332031 -1.679688 4.46875 -1.546875 C 4.601562 -1.421875 4.671875 -1.238281 4.671875 -1 C 4.671875 -0.757812 4.582031 -0.550781 4.40625 -0.375 C 4.238281 -0.207031 4.003906 -0.0820312 3.703125 0 C 3.410156 0.09375 3.070312 0.140625 2.6875 0.140625 Z M 2.6875 0.140625 "/></g></g><g style="fill:#ffffff;fill-opacity:1;"><g transform="translate(143.931124, 57.77909)"><path style="stroke:none" d="M 2.71875 0.140625 C 2.257812 0.140625 1.90625 0.0195312 1.65625 -0.21875 C 1.40625 -0.457031 1.28125 -0.789062 1.28125 -1.21875 L 1.28125 -3.078125 L 0 -3.078125 L 0 -3.515625 L 1.265625 -3.515625 L 1.265625 -4.640625 L 1.8125 -4.765625 L 1.8125 -3.515625 L 4.109375 -3.515625 L 4.109375 -3.078125 L 1.8125 -3.078125 L 1.8125 -1.25 C 1.8125 -0.957031 1.890625 -0.726562 2.046875 -0.5625 C 2.203125 -0.40625 2.429688 -0.328125 2.734375 -0.328125 C 2.984375 -0.328125 3.207031 -0.394531 3.40625 -0.53125 C 3.613281 -0.675781 3.753906 -0.863281 3.828125 -1.09375 L 4.28125 -0.875 C 4.175781 -0.570312 3.976562 -0.328125 3.6875 -0.140625 C 3.40625 0.046875 3.082031 0.140625 2.71875 0.140625 Z M 2.71875 0.140625 "/></g></g><g style="fill:#ffffff;fill-opacity:1;"><g transform="translate(148.853913, 57.77909)"><path style="stroke:none" d="M 0.625 -4.203125 C 0.507812 -4.203125 0.414062 -4.238281 0.34375 -4.3125 C 0.269531 -4.382812 0.234375 -4.476562 0.234375 -4.59375 C 0.234375 -4.707031 0.269531 -4.796875 0.34375 -4.859375 C 0.414062 -4.929688 0.507812 -4.96875 0.625 -4.96875 C 0.75 -4.96875 0.847656 -4.929688 0.921875 -4.859375 C 0.992188 -4.796875 1.03125 -4.707031 1.03125 -4.59375 C 1.03125 -4.476562 0.992188 -4.382812 0.921875 -4.3125 C 0.847656 -4.238281 0.75 -4.203125 0.625 -4.203125 Z M 0.359375 0 L 0.359375 -3.515625 L 0.890625 -3.515625 L 0.890625 0 Z M 0.359375 0 "/></g></g><g style="fill:#ffffff;fill-opacity:1;"><g transform="translate(150.636414, 57.77909)"><path style="stroke:none" d="M 0.28125 0 L 0.28125 -5.125 L 0.8125 -5.125 L 0.8125 0 Z M 0.28125 0 "/></g></g><g style="fill:#ffffff;fill-opacity:1;"><g transform="translate(152.244841, 57.77909)"><path style="stroke:none" d="M 2.78125 0.140625 C 2.257812 0.140625 1.804688 0.0625 1.421875 -0.09375 C 1.035156 -0.25 0.734375 -0.46875 0.515625 -0.75 C 0.304688 -1.039062 0.203125 -1.375 0.203125 -1.75 C 0.203125 -2.132812 0.304688 -2.46875 0.515625 -2.75 C 0.734375 -3.039062 1.035156 -3.265625 1.421875 -3.421875 C 1.804688 -3.578125 2.257812 -3.65625 2.78125 -3.65625 C 3.300781 -3.65625 3.753906 -3.578125 4.140625 -3.421875 C 4.523438 -3.265625 4.820312 -3.039062 5.03125 -2.75 C 5.25 -2.46875 5.359375 -2.132812 5.359375 -1.75 C 5.359375 -1.375 5.25 -1.039062 5.03125 -0.75 C 4.820312 -0.46875 4.523438 -0.25 4.140625 -0.09375 C 3.753906 0.0625 3.300781 0.140625 2.78125 0.140625 Z M 2.78125 -0.34375 C 3.195312 -0.34375 3.554688 -0.398438 3.859375 -0.515625 C 4.160156 -0.628906 4.394531 -0.789062 4.5625 -1 C 4.738281 -1.21875 4.828125 -1.46875 4.828125 -1.75 C 4.828125 -2.039062 4.738281 -2.289062 4.5625 -2.5 C 4.394531 -2.71875 4.160156 -2.882812 3.859375 -3 C 3.554688 -3.113281 3.195312 -3.171875 2.78125 -3.171875 C 2.375 -3.171875 2.015625 -3.113281 1.703125 -3 C 1.398438 -2.882812 1.160156 -2.71875 0.984375 -2.5 C 0.816406 -2.289062 0.734375 -2.039062 0.734375 -1.75 C 0.734375 -1.46875 0.816406 -1.21875 0.984375 -1 C 1.160156 -0.789062 1.398438 -0.628906 1.703125 -0.515625 C 2.015625 -0.398438 2.375 -0.34375 2.78125 -0.34375 Z M 2.78125 -0.34375 "/></g></g></g></svg>