<svg xmlns="http://www.w3.org/2000/svg" xmlns:xlink="http://www.w3.org/1999/xlink" width="213" zoomAndPan="magnify" viewBox="0 0 159.75 68.999997" height="92" preserveAspectRatio="xMidYMid meet" version="1.2"><defs/><g id="3df42a5db4"><g style="fill:#1c1e23;fill-opacity:1;"><g transform="translate(44.130913, 45.818301)"><path style="stroke:none" d="M 20.84375 -28.265625 C 21.082031 -28.265625 21.203125 -28.15625 21.203125 -27.9375 L 21.203125 -9.4375 C 21.203125 -7.457031 20.734375 -5.757812 19.796875 -4.34375 C 18.867188 -2.925781 17.601562 -1.847656 16 -1.109375 C 14.394531 -0.367188 12.59375 0 10.59375 0 C 8.664062 0 6.894531 -0.378906 5.28125 -1.140625 C 3.664062 -1.910156 2.378906 -3 1.421875 -4.40625 C 0.472656 -5.820312 0 -7.5 0 -9.4375 L 0 -23.140625 L 5.328125 -23.140625 L 5.328125 -9.46875 C 5.492188 -8.082031 6.085938 -7.019531 7.109375 -6.28125 C 8.140625 -5.550781 9.300781 -5.1875 10.59375 -5.1875 C 11.488281 -5.1875 12.335938 -5.335938 13.140625 -5.640625 C 13.941406 -5.953125 14.59375 -6.425781 15.09375 -7.0625 C 15.601562 -7.695312 15.859375 -8.488281 15.859375 -9.4375 L 15.859375 -27.9375 C 15.859375 -28.15625 15.988281 -28.265625 16.25 -28.265625 Z M 20.84375 -28.265625 "/></g></g><g style="fill:#1c1e23;fill-opacity:1;"><g transform="translate(21.457205, 45.818301)"><path style="stroke:none" d="M 15.265625 -5.265625 C 15.523438 -5.265625 15.65625 -5.144531 15.65625 -4.90625 L 15.65625 -0.3125 C 15.65625 -0.101562 15.523438 0 15.265625 0 L 0.390625 0 C 0.128906 0 0 -0.101562 0 -0.3125 L 0 -5.265625 Z M 5.40625 -10.671875 L 0 -10.671875 L 0 -27.9375 C 0 -28.15625 0.128906 -28.265625 0.390625 -28.265625 L 5.046875 -28.265625 C 5.285156 -28.265625 5.40625 -28.15625 5.40625 -27.9375 Z M 5.40625 -10.671875 "/></g></g><g style="fill:#1c1e23;fill-opacity:1;"><g transform="translate(71.398829, 45.818301)"><path style="stroke:none" d="M 2.359375 -23.421875 C 2.109375 -23.421875 1.984375 -23.523438 1.984375 -23.734375 L 1.984375 -27.9375 C 1.984375 -28.15625 2.109375 -28.265625 2.359375 -28.265625 L 11.96875 -28.265625 C 12.207031 -28.265625 12.328125 -28.15625 12.328125 -27.9375 L 12.328125 -23.421875 Z M 6.953125 -18.578125 L 12.328125 -18.578125 L 12.328125 -8.34375 C 12.328125 -6.945312 12.117188 -5.769531 11.703125 -4.8125 C 11.296875 -3.863281 10.773438 -3.082031 10.140625 -2.46875 C 9.503906 -1.851562 8.828125 -1.375 8.109375 -1.03125 C 7.390625 -0.695312 6.710938 -0.457031 6.078125 -0.3125 C 5.441406 -0.175781 4.914062 -0.0859375 4.5 -0.046875 C 4.09375 -0.015625 3.890625 0 3.890625 0 L 0.390625 0 C 0.128906 0 0 -0.101562 0 -0.3125 L 0 -4.90625 C 0 -5.125 0.128906 -5.234375 0.390625 -5.234375 L 3.890625 -5.234375 C 4.660156 -5.234375 5.25 -5.390625 5.65625 -5.703125 C 6.070312 -6.023438 6.375 -6.382812 6.5625 -6.78125 C 6.757812 -7.1875 6.875 -7.546875 6.90625 -7.859375 C 6.9375 -8.179688 6.953125 -8.34375 6.953125 -8.34375 Z M 6.953125 -18.578125 "/></g></g><g style="fill:#1c1e23;fill-opacity:1;"><g transform="translate(90.190618, 45.818301)"><path style="stroke:none" d="M 22.1875 -0.421875 C 22.226562 -0.328125 22.210938 -0.234375 22.140625 -0.140625 C 22.078125 -0.046875 21.988281 0 21.875 0 L 17 0 C 16.832031 0 16.722656 -0.0703125 16.671875 -0.21875 L 11.09375 -15.96875 L 5.578125 -0.21875 C 5.554688 -0.0703125 5.441406 0 5.234375 0 L 0.390625 0 C 0.222656 0 0.109375 -0.046875 0.046875 -0.140625 C -0.00390625 -0.234375 -0.0078125 -0.328125 0.03125 -0.421875 L 10.734375 -28.046875 C 10.785156 -28.191406 10.90625 -28.265625 11.09375 -28.265625 C 11.28125 -28.265625 11.398438 -28.191406 11.453125 -28.046875 Z M 22.1875 -0.421875 "/></g></g><g style="fill:#1c1e23;fill-opacity:1;"><g transform="translate(117.267356, 45.818301)"><path style="stroke:none" d="M 23.390625 -28.265625 C 23.648438 -28.265625 23.78125 -28.15625 23.78125 -27.9375 L 23.78125 -0.3125 C 23.78125 -0.101562 23.648438 0 23.390625 0 L 18.71875 0 C 18.695312 0 18.644531 -0.0078125 18.5625 -0.03125 C 18.476562 -0.0625 18.425781 -0.0859375 18.40625 -0.109375 L 5.40625 -18.71875 L 5.40625 -6.78125 L 0 -6.78125 L 0 -27.9375 C 0 -28.15625 0.117188 -28.265625 0.359375 -28.265625 L 5.046875 -28.265625 C 5.097656 -28.265625 5.15625 -28.257812 5.21875 -28.25 C 5.289062 -28.238281 5.34375 -28.207031 5.375 -28.15625 L 18.40625 -9.53125 L 18.40625 -27.9375 C 18.40625 -28.15625 18.546875 -28.265625 18.828125 -28.265625 Z M 23.390625 -28.265625 "/></g></g><g style="fill:#545454;fill-opacity:1;"><g transform="translate(21.891257, 61.356745)"><path style="stroke:none" d="M 3.171875 0 L 3.171875 -5.859375 L 0.046875 -5.859375 L 0.046875 -6.546875 L 7.0625 -6.546875 L 7.0625 -5.859375 L 3.9375 -5.859375 L 3.9375 0 Z M 3.171875 0 "/></g></g><g style="fill:#545454;fill-opacity:1;"><g transform="translate(29.699949, 61.356745)"><path style="stroke:none" d="M 3 0.1875 C 2.164062 0.1875 1.507812 -0.0195312 1.03125 -0.4375 C 0.5625 -0.851562 0.328125 -1.429688 0.328125 -2.171875 L 0.328125 -4.6875 L 1.046875 -4.6875 L 1.046875 -2.234375 C 1.046875 -1.679688 1.226562 -1.25 1.59375 -0.9375 C 1.957031 -0.625 2.472656 -0.46875 3.140625 -0.46875 C 3.953125 -0.46875 4.585938 -0.664062 5.046875 -1.0625 C 5.503906 -1.457031 5.734375 -2.003906 5.734375 -2.703125 L 5.734375 -4.6875 L 6.4375 -4.6875 L 6.4375 0 L 5.796875 0 L 5.734375 -1.140625 L 5.71875 -1.140625 C 5.507812 -0.722656 5.160156 -0.394531 4.671875 -0.15625 C 4.191406 0.0703125 3.632812 0.1875 3 0.1875 Z M 3 0.1875 "/></g></g><g style="fill:#545454;fill-opacity:1;"><g transform="translate(37.211179, 61.356745)"><path style="stroke:none" d=""/></g></g><g style="fill:#545454;fill-opacity:1;"><g transform="translate(40.818228, 61.356745)"><path style="stroke:none" d="M 3.546875 0.1875 C 2.898438 0.1875 2.328125 0.0820312 1.828125 -0.125 C 1.335938 -0.34375 0.957031 -0.640625 0.6875 -1.015625 C 0.414062 -1.398438 0.28125 -1.84375 0.28125 -2.34375 C 0.28125 -2.851562 0.414062 -3.296875 0.6875 -3.671875 C 0.96875 -4.054688 1.351562 -4.351562 1.84375 -4.5625 C 2.332031 -4.769531 2.894531 -4.875 3.53125 -4.875 C 4.019531 -4.875 4.460938 -4.8125 4.859375 -4.6875 C 5.253906 -4.570312 5.59375 -4.398438 5.875 -4.171875 C 6.15625 -3.953125 6.359375 -3.691406 6.484375 -3.390625 L 5.84375 -3.140625 C 5.707031 -3.484375 5.4375 -3.753906 5.03125 -3.953125 C 4.632812 -4.160156 4.160156 -4.265625 3.609375 -4.265625 C 3.097656 -4.265625 2.644531 -4.179688 2.25 -4.015625 C 1.851562 -3.859375 1.539062 -3.632812 1.3125 -3.34375 C 1.09375 -3.0625 0.984375 -2.726562 0.984375 -2.34375 C 0.984375 -1.957031 1.09375 -1.617188 1.3125 -1.328125 C 1.539062 -1.046875 1.851562 -0.820312 2.25 -0.65625 C 2.65625 -0.5 3.117188 -0.421875 3.640625 -0.421875 C 4.078125 -0.421875 4.488281 -0.484375 4.875 -0.609375 C 5.257812 -0.742188 5.585938 -0.929688 5.859375 -1.171875 C 6.140625 -1.410156 6.332031 -1.679688 6.4375 -1.984375 L 7.109375 -1.765625 C 6.960938 -1.378906 6.710938 -1.039062 6.359375 -0.75 C 6.015625 -0.457031 5.597656 -0.226562 5.109375 -0.0625 C 4.628906 0.101562 4.109375 0.1875 3.546875 0.1875 Z M 3.546875 0.1875 "/></g></g><g style="fill:#545454;fill-opacity:1;"><g transform="translate(48.812831, 61.356745)"><path style="stroke:none" d="M 3.6875 -5.5625 L 3.5 -5.84375 L 5.40625 -7.125 L 5.609375 -6.828125 Z M 3.703125 0.1875 C 3.015625 0.1875 2.414062 0.0820312 1.90625 -0.125 C 1.394531 -0.34375 0.992188 -0.640625 0.703125 -1.015625 C 0.421875 -1.390625 0.28125 -1.832031 0.28125 -2.34375 C 0.28125 -2.851562 0.421875 -3.296875 0.703125 -3.671875 C 0.992188 -4.054688 1.394531 -4.351562 1.90625 -4.5625 C 2.414062 -4.769531 3.015625 -4.875 3.703125 -4.875 C 4.398438 -4.875 5.003906 -4.769531 5.515625 -4.5625 C 6.035156 -4.351562 6.4375 -4.054688 6.71875 -3.671875 C 7.007812 -3.296875 7.15625 -2.851562 7.15625 -2.34375 C 7.15625 -1.832031 7.007812 -1.390625 6.71875 -1.015625 C 6.4375 -0.640625 6.035156 -0.34375 5.515625 -0.125 C 5.003906 0.0820312 4.398438 0.1875 3.703125 0.1875 Z M 3.703125 -0.453125 C 4.253906 -0.453125 4.734375 -0.53125 5.140625 -0.6875 C 5.546875 -0.84375 5.863281 -1.0625 6.09375 -1.34375 C 6.320312 -1.632812 6.4375 -1.96875 6.4375 -2.34375 C 6.4375 -2.726562 6.320312 -3.0625 6.09375 -3.34375 C 5.863281 -3.625 5.546875 -3.84375 5.140625 -4 C 4.734375 -4.15625 4.253906 -4.234375 3.703125 -4.234375 C 3.160156 -4.234375 2.6875 -4.15625 2.28125 -4 C 1.875 -3.84375 1.554688 -3.625 1.328125 -3.34375 C 1.097656 -3.0625 0.984375 -2.726562 0.984375 -2.34375 C 0.984375 -1.96875 1.097656 -1.632812 1.328125 -1.34375 C 1.554688 -1.0625 1.875 -0.84375 2.28125 -0.6875 C 2.6875 -0.53125 3.160156 -0.453125 3.703125 -0.453125 Z M 3.703125 -0.453125 "/></g></g><g style="fill:#545454;fill-opacity:1;"><g transform="translate(56.937574, 61.356745)"><path style="stroke:none" d="M 3.640625 0.1875 C 2.960938 0.1875 2.375 0.0820312 1.875 -0.125 C 1.375 -0.34375 0.984375 -0.640625 0.703125 -1.015625 C 0.421875 -1.398438 0.28125 -1.84375 0.28125 -2.34375 C 0.28125 -2.851562 0.414062 -3.296875 0.6875 -3.671875 C 0.96875 -4.054688 1.359375 -4.351562 1.859375 -4.5625 C 2.367188 -4.769531 2.957031 -4.875 3.625 -4.875 C 4.050781 -4.875 4.445312 -4.820312 4.8125 -4.71875 C 5.1875 -4.625 5.507812 -4.476562 5.78125 -4.28125 C 6.0625 -4.09375 6.269531 -3.875 6.40625 -3.625 L 6.421875 -3.625 L 6.421875 -6.828125 L 7.125 -6.828125 L 7.125 0 L 6.515625 0 L 6.4375 -1.078125 L 6.421875 -1.078125 C 6.285156 -0.828125 6.082031 -0.601562 5.8125 -0.40625 C 5.539062 -0.21875 5.21875 -0.0703125 4.84375 0.03125 C 4.46875 0.132812 4.066406 0.1875 3.640625 0.1875 Z M 3.703125 -0.453125 C 4.253906 -0.453125 4.734375 -0.53125 5.140625 -0.6875 C 5.546875 -0.851562 5.863281 -1.078125 6.09375 -1.359375 C 6.320312 -1.640625 6.4375 -1.96875 6.4375 -2.34375 C 6.4375 -2.71875 6.320312 -3.046875 6.09375 -3.328125 C 5.863281 -3.609375 5.546875 -3.828125 5.140625 -3.984375 C 4.734375 -4.148438 4.253906 -4.234375 3.703125 -4.234375 C 3.171875 -4.234375 2.695312 -4.148438 2.28125 -3.984375 C 1.875 -3.828125 1.554688 -3.609375 1.328125 -3.328125 C 1.097656 -3.046875 0.984375 -2.71875 0.984375 -2.34375 C 0.984375 -1.96875 1.097656 -1.640625 1.328125 -1.359375 C 1.554688 -1.078125 1.875 -0.851562 2.28125 -0.6875 C 2.695312 -0.53125 3.171875 -0.453125 3.703125 -0.453125 Z M 3.703125 -0.453125 "/></g></g><g style="fill:#545454;fill-opacity:1;"><g transform="translate(65.136682, 61.356745)"><path style="stroke:none" d="M 0.84375 -5.609375 C 0.6875 -5.609375 0.554688 -5.65625 0.453125 -5.75 C 0.359375 -5.84375 0.3125 -5.96875 0.3125 -6.125 C 0.3125 -6.28125 0.359375 -6.40625 0.453125 -6.5 C 0.554688 -6.59375 0.6875 -6.640625 0.84375 -6.640625 C 1 -6.640625 1.125 -6.59375 1.21875 -6.5 C 1.3125 -6.40625 1.359375 -6.28125 1.359375 -6.125 C 1.359375 -5.96875 1.3125 -5.84375 1.21875 -5.75 C 1.125 -5.65625 1 -5.609375 0.84375 -5.609375 Z M 0.484375 0 L 0.484375 -4.6875 L 1.1875 -4.6875 L 1.1875 0 Z M 0.484375 0 "/></g></g><g style="fill:#545454;fill-opacity:1;"><g transform="translate(67.516705, 61.356745)"><path style="stroke:none" d="M 3.296875 2.140625 C 2.566406 2.140625 1.90625 2.054688 1.3125 1.890625 C 0.71875 1.722656 0.222656 1.5 -0.171875 1.21875 L 0.265625 0.65625 C 0.628906 0.90625 1.078125 1.109375 1.609375 1.265625 C 2.148438 1.421875 2.710938 1.5 3.296875 1.5 C 3.898438 1.5 4.414062 1.414062 4.84375 1.25 C 5.28125 1.09375 5.613281 0.863281 5.84375 0.5625 C 6.082031 0.269531 6.203125 -0.078125 6.203125 -0.484375 L 6.203125 -0.953125 C 6.066406 -0.734375 5.867188 -0.535156 5.609375 -0.359375 C 5.347656 -0.191406 5.039062 -0.0625 4.6875 0.03125 C 4.34375 0.132812 3.96875 0.1875 3.5625 0.1875 C 2.914062 0.1875 2.347656 0.0820312 1.859375 -0.125 C 1.367188 -0.34375 0.984375 -0.640625 0.703125 -1.015625 C 0.429688 -1.398438 0.296875 -1.835938 0.296875 -2.328125 C 0.296875 -2.835938 0.429688 -3.28125 0.703125 -3.65625 C 0.972656 -4.039062 1.351562 -4.335938 1.84375 -4.546875 C 2.332031 -4.765625 2.898438 -4.875 3.546875 -4.875 C 3.941406 -4.875 4.316406 -4.820312 4.671875 -4.71875 C 5.023438 -4.613281 5.332031 -4.46875 5.59375 -4.28125 C 5.863281 -4.09375 6.066406 -3.878906 6.203125 -3.640625 L 6.296875 -4.6875 L 6.921875 -4.6875 L 6.921875 -0.484375 C 6.921875 0.0546875 6.773438 0.519531 6.484375 0.90625 C 6.191406 1.300781 5.773438 1.601562 5.234375 1.8125 C 4.691406 2.03125 4.046875 2.140625 3.296875 2.140625 Z M 3.609375 -0.453125 C 4.128906 -0.453125 4.585938 -0.53125 4.984375 -0.6875 C 5.378906 -0.851562 5.6875 -1.078125 5.90625 -1.359375 C 6.125 -1.640625 6.234375 -1.960938 6.234375 -2.328125 C 6.234375 -2.710938 6.117188 -3.046875 5.890625 -3.328125 C 5.671875 -3.609375 5.363281 -3.828125 4.96875 -3.984375 C 4.582031 -4.148438 4.128906 -4.234375 3.609375 -4.234375 C 3.097656 -4.234375 2.644531 -4.148438 2.25 -3.984375 C 1.863281 -3.828125 1.554688 -3.609375 1.328125 -3.328125 C 1.109375 -3.046875 1 -2.710938 1 -2.328125 C 1 -1.960938 1.109375 -1.640625 1.328125 -1.359375 C 1.554688 -1.078125 1.867188 -0.851562 2.265625 -0.6875 C 2.660156 -0.53125 3.109375 -0.453125 3.609375 -0.453125 Z M 3.609375 -0.453125 "/></g></g><g style="fill:#545454;fill-opacity:1;"><g transform="translate(75.511308, 61.356745)"><path style="stroke:none" d="M 3.703125 0.1875 C 3.015625 0.1875 2.414062 0.0820312 1.90625 -0.125 C 1.394531 -0.34375 0.992188 -0.640625 0.703125 -1.015625 C 0.421875 -1.390625 0.28125 -1.832031 0.28125 -2.34375 C 0.28125 -2.851562 0.421875 -3.296875 0.703125 -3.671875 C 0.992188 -4.054688 1.394531 -4.351562 1.90625 -4.5625 C 2.414062 -4.769531 3.015625 -4.875 3.703125 -4.875 C 4.398438 -4.875 5.003906 -4.769531 5.515625 -4.5625 C 6.035156 -4.351562 6.4375 -4.054688 6.71875 -3.671875 C 7.007812 -3.296875 7.15625 -2.851562 7.15625 -2.34375 C 7.15625 -1.832031 7.007812 -1.390625 6.71875 -1.015625 C 6.4375 -0.640625 6.035156 -0.34375 5.515625 -0.125 C 5.003906 0.0820312 4.398438 0.1875 3.703125 0.1875 Z M 3.703125 -0.453125 C 4.253906 -0.453125 4.734375 -0.53125 5.140625 -0.6875 C 5.546875 -0.84375 5.863281 -1.0625 6.09375 -1.34375 C 6.320312 -1.632812 6.4375 -1.96875 6.4375 -2.34375 C 6.4375 -2.726562 6.320312 -3.0625 6.09375 -3.34375 C 5.863281 -3.625 5.546875 -3.84375 5.140625 -4 C 4.734375 -4.15625 4.253906 -4.234375 3.703125 -4.234375 C 3.160156 -4.234375 2.6875 -4.15625 2.28125 -4 C 1.875 -3.84375 1.554688 -3.625 1.328125 -3.34375 C 1.097656 -3.0625 0.984375 -2.726562 0.984375 -2.34375 C 0.984375 -1.96875 1.097656 -1.632812 1.328125 -1.34375 C 1.554688 -1.0625 1.875 -0.84375 2.28125 -0.6875 C 2.6875 -0.53125 3.160156 -0.453125 3.703125 -0.453125 Z M 3.703125 -0.453125 "/></g></g><g style="fill:#545454;fill-opacity:1;"><g transform="translate(83.636051, 61.356745)"><path style="stroke:none" d="M 0.296875 1.234375 L 0.40625 0.90625 C 0.550781 0.945312 0.6875 0.929688 0.8125 0.859375 C 0.945312 0.796875 1.050781 0.691406 1.125 0.546875 C 1.207031 0.398438 1.242188 0.238281 1.234375 0.0625 C 1.023438 0.132812 0.847656 0.113281 0.703125 0 C 0.566406 -0.101562 0.5 -0.238281 0.5 -0.40625 C 0.5 -0.550781 0.546875 -0.671875 0.640625 -0.765625 C 0.742188 -0.859375 0.863281 -0.90625 1 -0.90625 C 1.175781 -0.90625 1.316406 -0.832031 1.421875 -0.6875 C 1.523438 -0.539062 1.578125 -0.316406 1.578125 -0.015625 C 1.578125 0.441406 1.457031 0.785156 1.21875 1.015625 C 0.976562 1.242188 0.671875 1.316406 0.296875 1.234375 Z M 0.296875 1.234375 "/></g></g><g style="fill:#545454;fill-opacity:1;"><g transform="translate(86.211281, 61.356745)"><path style="stroke:none" d=""/></g></g><g style="fill:#545454;fill-opacity:1;"><g transform="translate(89.818329, 61.356745)"><path style="stroke:none" d="M 3.640625 0.1875 C 3.015625 0.1875 2.535156 0.03125 2.203125 -0.28125 C 1.867188 -0.601562 1.703125 -1.054688 1.703125 -1.640625 L 1.703125 -4.09375 L 0 -4.09375 L 0 -4.6875 L 1.6875 -4.6875 L 1.6875 -6.1875 L 2.421875 -6.34375 L 2.421875 -4.6875 L 5.484375 -4.6875 L 5.484375 -4.09375 L 2.421875 -4.09375 L 2.421875 -1.671875 C 2.410156 -1.273438 2.507812 -0.96875 2.71875 -0.75 C 2.9375 -0.53125 3.242188 -0.421875 3.640625 -0.421875 C 3.984375 -0.421875 4.285156 -0.515625 4.546875 -0.703125 C 4.816406 -0.898438 5.003906 -1.15625 5.109375 -1.46875 L 5.71875 -1.171875 C 5.570312 -0.765625 5.304688 -0.4375 4.921875 -0.1875 C 4.535156 0.0625 4.109375 0.1875 3.640625 0.1875 Z M 3.640625 0.1875 "/></g></g><g style="fill:#545454;fill-opacity:1;"><g transform="translate(96.390696, 61.356745)"><path style="stroke:none" d="M 3 0.1875 C 2.164062 0.1875 1.507812 -0.0195312 1.03125 -0.4375 C 0.5625 -0.851562 0.328125 -1.429688 0.328125 -2.171875 L 0.328125 -4.6875 L 1.046875 -4.6875 L 1.046875 -2.234375 C 1.046875 -1.679688 1.226562 -1.25 1.59375 -0.9375 C 1.957031 -0.625 2.472656 -0.46875 3.140625 -0.46875 C 3.953125 -0.46875 4.585938 -0.664062 5.046875 -1.0625 C 5.503906 -1.457031 5.734375 -2.003906 5.734375 -2.703125 L 5.734375 -4.6875 L 6.4375 -4.6875 L 6.4375 0 L 5.796875 0 L 5.734375 -1.140625 L 5.71875 -1.140625 C 5.507812 -0.722656 5.160156 -0.394531 4.671875 -0.15625 C 4.191406 0.0703125 3.632812 0.1875 3 0.1875 Z M 3 0.1875 "/></g></g><g style="fill:#545454;fill-opacity:1;"><g transform="translate(103.901926, 61.356745)"><path style="stroke:none" d=""/></g></g><g style="fill:#545454;fill-opacity:1;"><g transform="translate(107.50897, 61.356745)"><path style="stroke:none" d="M 3.8125 0.1875 C 3.132812 0.1875 2.53125 0.078125 2 -0.140625 C 1.46875 -0.367188 1.046875 -0.675781 0.734375 -1.0625 C 0.429688 -1.457031 0.28125 -1.90625 0.28125 -2.40625 C 0.28125 -2.882812 0.421875 -3.304688 0.703125 -3.671875 C 0.984375 -4.046875 1.367188 -4.335938 1.859375 -4.546875 C 2.359375 -4.765625 2.925781 -4.875 3.5625 -4.875 C 4.1875 -4.875 4.738281 -4.765625 5.21875 -4.546875 C 5.707031 -4.335938 6.09375 -4.046875 6.375 -3.671875 C 6.65625 -3.296875 6.796875 -2.867188 6.796875 -2.390625 C 6.796875 -2.347656 6.789062 -2.289062 6.78125 -2.21875 C 6.78125 -2.15625 6.78125 -2.097656 6.78125 -2.046875 L 1.09375 -2.046875 C 1.132812 -1.742188 1.285156 -1.472656 1.546875 -1.234375 C 1.804688 -1.003906 2.140625 -0.820312 2.546875 -0.6875 C 2.953125 -0.5625 3.398438 -0.5 3.890625 -0.5 C 4.273438 -0.5 4.648438 -0.539062 5.015625 -0.625 C 5.390625 -0.707031 5.722656 -0.820312 6.015625 -0.96875 C 6.316406 -1.113281 6.554688 -1.273438 6.734375 -1.453125 L 7.140625 -0.953125 C 6.921875 -0.734375 6.632812 -0.535156 6.28125 -0.359375 C 5.9375 -0.191406 5.550781 -0.0625 5.125 0.03125 C 4.695312 0.132812 4.257812 0.1875 3.8125 0.1875 Z M 1.078125 -2.671875 L 6.03125 -2.671875 C 6 -2.992188 5.867188 -3.265625 5.640625 -3.484375 C 5.410156 -3.710938 5.109375 -3.882812 4.734375 -4 C 4.367188 -4.125 3.960938 -4.1875 3.515625 -4.1875 C 3.078125 -4.1875 2.675781 -4.117188 2.3125 -3.984375 C 1.957031 -3.859375 1.671875 -3.679688 1.453125 -3.453125 C 1.234375 -3.222656 1.109375 -2.960938 1.078125 -2.671875 Z M 1.078125 -2.671875 "/></g></g><g style="fill:#545454;fill-opacity:1;"><g transform="translate(115.605828, 61.356745)"><path style="stroke:none" d="M 3.59375 0.1875 C 3.03125 0.1875 2.515625 0.117188 2.046875 -0.015625 C 1.578125 -0.160156 1.179688 -0.359375 0.859375 -0.609375 C 0.546875 -0.867188 0.335938 -1.15625 0.234375 -1.46875 L 0.828125 -1.78125 C 0.910156 -1.53125 1.082031 -1.300781 1.34375 -1.09375 C 1.601562 -0.894531 1.921875 -0.738281 2.296875 -0.625 C 2.679688 -0.507812 3.101562 -0.453125 3.5625 -0.453125 C 3.9375 -0.453125 4.269531 -0.484375 4.5625 -0.546875 C 4.863281 -0.617188 5.101562 -0.71875 5.28125 -0.84375 C 5.457031 -0.976562 5.546875 -1.128906 5.546875 -1.296875 C 5.546875 -1.515625 5.410156 -1.675781 5.140625 -1.78125 C 4.878906 -1.894531 4.519531 -1.976562 4.0625 -2.03125 L 2.703125 -2.15625 C 2.328125 -2.195312 1.988281 -2.257812 1.6875 -2.34375 C 1.382812 -2.4375 1.144531 -2.570312 0.96875 -2.75 C 0.789062 -2.925781 0.703125 -3.15625 0.703125 -3.4375 C 0.703125 -3.738281 0.804688 -3.992188 1.015625 -4.203125 C 1.234375 -4.421875 1.523438 -4.585938 1.890625 -4.703125 C 2.253906 -4.816406 2.671875 -4.875 3.140625 -4.875 C 3.523438 -4.875 3.894531 -4.820312 4.25 -4.71875 C 4.601562 -4.625 4.914062 -4.488281 5.1875 -4.3125 C 5.457031 -4.132812 5.65625 -3.929688 5.78125 -3.703125 L 5.234375 -3.3125 C 5.128906 -3.5 4.96875 -3.660156 4.75 -3.796875 C 4.539062 -3.941406 4.296875 -4.054688 4.015625 -4.140625 C 3.734375 -4.222656 3.429688 -4.265625 3.109375 -4.265625 C 2.617188 -4.265625 2.210938 -4.191406 1.890625 -4.046875 C 1.566406 -3.910156 1.40625 -3.722656 1.40625 -3.484375 C 1.40625 -3.273438 1.519531 -3.125 1.75 -3.03125 C 1.988281 -2.9375 2.332031 -2.863281 2.78125 -2.8125 L 4.1875 -2.671875 C 4.570312 -2.628906 4.914062 -2.5625 5.21875 -2.46875 C 5.53125 -2.382812 5.773438 -2.253906 5.953125 -2.078125 C 6.140625 -1.898438 6.234375 -1.65625 6.234375 -1.34375 C 6.234375 -1.019531 6.117188 -0.742188 5.890625 -0.515625 C 5.660156 -0.285156 5.34375 -0.113281 4.9375 0 C 4.539062 0.125 4.09375 0.1875 3.59375 0.1875 Z M 3.59375 0.1875 "/></g></g><g style="fill:#545454;fill-opacity:1;"><g transform="translate(122.773122, 61.356745)"><path style="stroke:none" d="M 3.640625 0.1875 C 3.015625 0.1875 2.535156 0.03125 2.203125 -0.28125 C 1.867188 -0.601562 1.703125 -1.054688 1.703125 -1.640625 L 1.703125 -4.09375 L 0 -4.09375 L 0 -4.6875 L 1.6875 -4.6875 L 1.6875 -6.1875 L 2.421875 -6.34375 L 2.421875 -4.6875 L 5.484375 -4.6875 L 5.484375 -4.09375 L 2.421875 -4.09375 L 2.421875 -1.671875 C 2.410156 -1.273438 2.507812 -0.96875 2.71875 -0.75 C 2.9375 -0.53125 3.242188 -0.421875 3.640625 -0.421875 C 3.984375 -0.421875 4.285156 -0.515625 4.546875 -0.703125 C 4.816406 -0.898438 5.003906 -1.15625 5.109375 -1.46875 L 5.71875 -1.171875 C 5.570312 -0.765625 5.304688 -0.4375 4.921875 -0.1875 C 4.535156 0.0625 4.109375 0.1875 3.640625 0.1875 Z M 3.640625 0.1875 "/></g></g><g style="fill:#545454;fill-opacity:1;"><g transform="translate(129.345493, 61.356745)"><path style="stroke:none" d="M 0.84375 -5.609375 C 0.6875 -5.609375 0.554688 -5.65625 0.453125 -5.75 C 0.359375 -5.84375 0.3125 -5.96875 0.3125 -6.125 C 0.3125 -6.28125 0.359375 -6.40625 0.453125 -6.5 C 0.554688 -6.59375 0.6875 -6.640625 0.84375 -6.640625 C 1 -6.640625 1.125 -6.59375 1.21875 -6.5 C 1.3125 -6.40625 1.359375 -6.28125 1.359375 -6.125 C 1.359375 -5.96875 1.3125 -5.84375 1.21875 -5.75 C 1.125 -5.65625 1 -5.609375 0.84375 -5.609375 Z M 0.484375 0 L 0.484375 -4.6875 L 1.1875 -4.6875 L 1.1875 0 Z M 0.484375 0 "/></g></g><g style="fill:#545454;fill-opacity:1;"><g transform="translate(131.725511, 61.356745)"><path style="stroke:none" d="M 0.375 0 L 0.375 -6.828125 L 1.078125 -6.828125 L 1.078125 0 Z M 0.375 0 "/></g></g><g style="fill:#545454;fill-opacity:1;"><g transform="translate(133.873143, 61.356745)"><path style="stroke:none" d="M 3.703125 0.1875 C 3.015625 0.1875 2.414062 0.0820312 1.90625 -0.125 C 1.394531 -0.34375 0.992188 -0.640625 0.703125 -1.015625 C 0.421875 -1.390625 0.28125 -1.832031 0.28125 -2.34375 C 0.28125 -2.851562 0.421875 -3.296875 0.703125 -3.671875 C 0.992188 -4.054688 1.394531 -4.351562 1.90625 -4.5625 C 2.414062 -4.769531 3.015625 -4.875 3.703125 -4.875 C 4.398438 -4.875 5.003906 -4.769531 5.515625 -4.5625 C 6.035156 -4.351562 6.4375 -4.054688 6.71875 -3.671875 C 7.007812 -3.296875 7.15625 -2.851562 7.15625 -2.34375 C 7.15625 -1.832031 7.007812 -1.390625 6.71875 -1.015625 C 6.4375 -0.640625 6.035156 -0.34375 5.515625 -0.125 C 5.003906 0.0820312 4.398438 0.1875 3.703125 0.1875 Z M 3.703125 -0.453125 C 4.253906 -0.453125 4.734375 -0.53125 5.140625 -0.6875 C 5.546875 -0.84375 5.863281 -1.0625 6.09375 -1.34375 C 6.320312 -1.632812 6.4375 -1.96875 6.4375 -2.34375 C 6.4375 -2.726562 6.320312 -3.0625 6.09375 -3.34375 C 5.863281 -3.625 5.546875 -3.84375 5.140625 -4 C 4.734375 -4.15625 4.253906 -4.234375 3.703125 -4.234375 C 3.160156 -4.234375 2.6875 -4.15625 2.28125 -4 C 1.875 -3.84375 1.554688 -3.625 1.328125 -3.34375 C 1.097656 -3.0625 0.984375 -2.726562 0.984375 -2.34375 C 0.984375 -1.96875 1.097656 -1.632812 1.328125 -1.34375 C 1.554688 -1.0625 1.875 -0.84375 2.28125 -0.6875 C 2.6875 -0.53125 3.160156 -0.453125 3.703125 -0.453125 Z M 3.703125 -0.453125 "/></g></g></g></svg>