<svg xmlns="http://www.w3.org/2000/svg" xmlns:xlink="http://www.w3.org/1999/xlink" width="300" zoomAndPan="magnify" viewBox="0 0 224.87999 60" height="80" preserveAspectRatio="xMidYMid meet" version="1.0"><defs><g/><clipPath id="45ad3be72f"><path d="M 27 0.53125 L 53 0.53125 L 53 48.988281 L 27 48.988281 Z M 27 0.53125 " clip-rule="nonzero"/></clipPath><clipPath id="ae430a1ffb"><path d="M 0.105469 11 L 25 11 L 25 44 L 0.105469 44 Z M 0.105469 11 " clip-rule="nonzero"/></clipPath><clipPath id="b64bed23b6"><rect x="0" width="26" y="0" height="49"/></clipPath><clipPath id="dcbfb15a36"><path d="M 0.960938 0.53125 L 20 0.53125 L 20 48.988281 L 0.960938 48.988281 Z M 0.960938 0.53125 " clip-rule="nonzero"/></clipPath><clipPath id="c980defea9"><path d="M 1 11 L 19.910156 11 L 19.910156 44 L 1 44 Z M 1 11 " clip-rule="nonzero"/></clipPath><clipPath id="b4250e4d9c"><rect x="0" width="20" y="0" height="49"/></clipPath><clipPath id="857447f828"><path d="M 57 0.53125 L 73 0.53125 L 73 48.988281 L 57 48.988281 Z M 57 0.53125 " clip-rule="nonzero"/></clipPath><clipPath id="f9e352141e"><path d="M 1 11 L 15.679688 11 L 15.679688 44 L 1 44 Z M 1 11 " clip-rule="nonzero"/></clipPath><clipPath id="f7c84f9dcb"><rect x="0" width="16" y="0" height="49"/></clipPath><clipPath id="024d9e819b"><path d="M 77 0.53125 L 106 0.53125 L 106 48.988281 L 77 48.988281 Z M 77 0.53125 " clip-rule="nonzero"/></clipPath><clipPath id="3f91193ff4"><rect x="0" width="29" y="0" height="49"/></clipPath><clipPath id="79c5fefd38"><path d="M 109 0.53125 L 138 0.53125 L 138 48.988281 L 109 48.988281 Z M 109 0.53125 " clip-rule="nonzero"/></clipPath><clipPath id="a3d279f48e"><path d="M 1 11 L 28.925781 11 L 28.925781 44 L 1 44 Z M 1 11 " clip-rule="nonzero"/></clipPath><clipPath id="b62936a933"><rect x="0" width="29" y="0" height="49"/></clipPath><clipPath id="fa02abffdc"><path d="M 145 0.53125 L 171 0.53125 L 171 48.988281 L 145 48.988281 Z M 145 0.53125 " clip-rule="nonzero"/></clipPath><clipPath id="71ce262ec5"><path d="M 0.121094 12 L 25.789062 12 L 25.789062 45 L 0.121094 45 Z M 0.121094 12 " clip-rule="nonzero"/></clipPath><clipPath id="d244ce562c"><rect x="0" width="26" y="0" height="49"/></clipPath><clipPath id="b55ee851db"><path d="M 175 0.53125 L 196 0.53125 L 196 48.988281 L 175 48.988281 Z M 175 0.53125 " clip-rule="nonzero"/></clipPath><clipPath id="8d658c92fc"><path d="M 0.585938 12 L 20 12 L 20 45 L 0.585938 45 Z M 0.585938 12 " clip-rule="nonzero"/></clipPath><clipPath id="4d29b5d1d5"><rect x="0" width="21" y="0" height="49"/></clipPath><clipPath id="524aff8eae"><path d="M 197 0.53125 L 223.320312 0.53125 L 223.320312 48.988281 L 197 48.988281 Z M 197 0.53125 " clip-rule="nonzero"/></clipPath><clipPath id="857936ff2c"><rect x="0" width="27" y="0" height="49"/></clipPath><clipPath id="8b6c4f0988"><rect x="0" width="224" y="0" height="49"/></clipPath></defs><g transform="matrix(1, 0, 0, 1, 0, 5)"><g clip-path="url(#8b6c4f0988)"><g clip-path="url(#45ad3be72f)"><g transform="matrix(1, 0, 0, 1, 27, -0.000000000000011546)"><g clip-path="url(#b64bed23b6)"><g clip-path="url(#ae430a1ffb)"><g fill="#1c1e23" fill-opacity="1"><g transform="translate(0.368589, 43.708095)"><g><path d="M 23.546875 -31.921875 C 23.804688 -31.921875 23.9375 -31.800781 23.9375 -31.5625 L 23.9375 -10.65625 C 23.9375 -8.414062 23.410156 -6.5 22.359375 -4.90625 C 21.316406 -3.3125 19.890625 -2.09375 18.078125 -1.25 C 16.265625 -0.414062 14.226562 0 11.96875 0 C 9.789062 0 7.789062 -0.429688 5.96875 -1.296875 C 4.144531 -2.160156 2.691406 -3.390625 1.609375 -4.984375 C 0.535156 -6.578125 0 -8.46875 0 -10.65625 L 0 -26.140625 L 6.03125 -26.140625 L 6.03125 -10.6875 C 6.21875 -9.125 6.890625 -7.925781 8.046875 -7.09375 C 9.203125 -6.269531 10.507812 -5.859375 11.96875 -5.859375 C 12.976562 -5.859375 13.9375 -6.03125 14.84375 -6.375 C 15.75 -6.726562 16.488281 -7.265625 17.0625 -7.984375 C 17.632812 -8.703125 17.921875 -9.59375 17.921875 -10.65625 L 17.921875 -31.5625 C 17.921875 -31.800781 18.066406 -31.921875 18.359375 -31.921875 Z M 23.546875 -31.921875 "/></g></g></g></g></g></g></g><g clip-path="url(#dcbfb15a36)"><g transform="matrix(1, 0, 0, 1, 0, -0.000000000000011546)"><g clip-path="url(#b4250e4d9c)"><g clip-path="url(#c980defea9)"><g fill="#1c1e23" fill-opacity="1"><g transform="translate(1.643274, 43.708095)"><g><path d="M 17.234375 -5.953125 C 17.523438 -5.953125 17.671875 -5.816406 17.671875 -5.546875 L 17.671875 -0.359375 C 17.671875 -0.117188 17.523438 0 17.234375 0 L 0.4375 0 C 0.144531 0 0 -0.117188 0 -0.359375 L 0 -5.953125 Z M 6.109375 -12.046875 L 0 -12.046875 L 0 -31.5625 C 0 -31.800781 0.144531 -31.921875 0.4375 -31.921875 L 5.703125 -31.921875 C 5.972656 -31.921875 6.109375 -31.800781 6.109375 -31.5625 Z M 6.109375 -12.046875 "/></g></g></g></g></g></g></g><g clip-path="url(#857447f828)"><g transform="matrix(1, 0, 0, 1, 57, -0.000000000000011546)"><g clip-path="url(#f7c84f9dcb)"><g clip-path="url(#f9e352141e)"><g fill="#1c1e23" fill-opacity="1"><g transform="translate(1.274197, 43.708095)"><g><path d="M 2.671875 -26.453125 C 2.378906 -26.453125 2.234375 -26.570312 2.234375 -26.8125 L 2.234375 -31.5625 C 2.234375 -31.800781 2.378906 -31.921875 2.671875 -31.921875 L 13.53125 -31.921875 C 13.789062 -31.921875 13.921875 -31.800781 13.921875 -31.5625 L 13.921875 -26.453125 Z M 7.859375 -20.984375 L 13.921875 -20.984375 L 13.921875 -9.421875 C 13.921875 -7.847656 13.6875 -6.519531 13.21875 -5.4375 C 12.757812 -4.363281 12.171875 -3.476562 11.453125 -2.78125 C 10.734375 -2.09375 9.96875 -1.554688 9.15625 -1.171875 C 8.34375 -0.785156 7.578125 -0.515625 6.859375 -0.359375 C 6.140625 -0.203125 5.546875 -0.101562 5.078125 -0.0625 C 4.617188 -0.0195312 4.390625 0 4.390625 0 L 0.4375 0 C 0.144531 0 0 -0.117188 0 -0.359375 L 0 -5.546875 C 0 -5.785156 0.144531 -5.90625 0.4375 -5.90625 L 4.390625 -5.90625 C 5.265625 -5.90625 5.9375 -6.082031 6.40625 -6.4375 C 6.875 -6.800781 7.210938 -7.207031 7.421875 -7.65625 C 7.628906 -8.113281 7.753906 -8.519531 7.796875 -8.875 C 7.835938 -9.238281 7.859375 -9.421875 7.859375 -9.421875 Z M 7.859375 -20.984375 "/></g></g></g></g></g></g></g><g clip-path="url(#024d9e819b)"><g transform="matrix(1, 0, 0, 1, 77, -0.000000000000011546)"><g clip-path="url(#3f91193ff4)"><g fill="#1c1e23" fill-opacity="1"><g transform="translate(2.624626, 43.708095)"><g><path d="M 25.0625 -0.484375 C 25.113281 -0.367188 25.097656 -0.257812 25.015625 -0.15625 C 24.941406 -0.0507812 24.835938 0 24.703125 0 L 19.1875 0 C 19.007812 0 18.890625 -0.078125 18.828125 -0.234375 L 12.53125 -18.03125 L 6.3125 -0.234375 C 6.28125 -0.078125 6.144531 0 5.90625 0 L 0.4375 0 C 0.25 0 0.117188 -0.0507812 0.046875 -0.15625 C -0.015625 -0.257812 -0.015625 -0.367188 0.046875 -0.484375 L 12.125 -31.6875 C 12.1875 -31.84375 12.320312 -31.921875 12.53125 -31.921875 C 12.738281 -31.921875 12.867188 -31.84375 12.921875 -31.6875 Z M 25.0625 -0.484375 "/></g></g></g></g></g></g><g clip-path="url(#79c5fefd38)"><g transform="matrix(1, 0, 0, 1, 109, -0.000000000000011546)"><g clip-path="url(#b62936a933)"><g clip-path="url(#a3d279f48e)"><g fill="#1c1e23" fill-opacity="1"><g transform="translate(1.323784, 43.708095)"><g><path d="M 26.421875 -31.921875 C 26.710938 -31.921875 26.859375 -31.800781 26.859375 -31.5625 L 26.859375 -0.359375 C 26.859375 -0.117188 26.710938 0 26.421875 0 L 21.15625 0 C 21.125 0 21.0625 -0.0078125 20.96875 -0.03125 C 20.875 -0.0625 20.816406 -0.09375 20.796875 -0.125 L 6.109375 -21.15625 L 6.109375 -7.65625 L 0 -7.65625 L 0 -31.5625 C 0 -31.800781 0.132812 -31.921875 0.40625 -31.921875 L 5.703125 -31.921875 C 5.753906 -31.921875 5.820312 -31.914062 5.90625 -31.90625 C 5.988281 -31.894531 6.039062 -31.863281 6.0625 -31.8125 L 20.796875 -10.78125 L 20.796875 -31.5625 C 20.796875 -31.800781 20.953125 -31.921875 21.265625 -31.921875 Z M 26.421875 -31.921875 "/></g></g></g></g></g></g></g><g clip-path="url(#fa02abffdc)"><g transform="matrix(1, 0, 0, 1, 145, -0.000000000000011546)"><g clip-path="url(#d244ce562c)"><g clip-path="url(#71ce262ec5)"><g fill="#9941bf" fill-opacity="1"><g transform="translate(0.744525, 44.348456)"><g><path d="M 5.671875 -31.921875 C 7.210938 -31.921875 8.847656 -31.8125 10.578125 -31.59375 C 12.304688 -31.382812 13.976562 -30.972656 15.59375 -30.359375 C 17.21875 -29.753906 18.6875 -28.863281 20 -27.6875 C 21.320312 -26.519531 22.375 -24.984375 23.15625 -23.078125 C 23.945312 -21.179688 24.34375 -18.8125 24.34375 -15.96875 C 24.34375 -13.226562 23.957031 -10.914062 23.1875 -9.03125 C 22.414062 -7.15625 21.378906 -5.625 20.078125 -4.4375 C 18.773438 -3.257812 17.300781 -2.34375 15.65625 -1.6875 C 14.019531 -1.039062 12.34375 -0.597656 10.625 -0.359375 C 8.914062 -0.117188 7.265625 0 5.671875 0 L 0.4375 0 C 0.144531 0 0 -0.117188 0 -0.359375 L 0 -12.890625 L 6.109375 -12.890625 L 6.109375 -5.859375 C 6.878906 -5.835938 7.78125 -5.859375 8.8125 -5.921875 C 9.851562 -5.992188 10.914062 -6.195312 12 -6.53125 C 13.09375 -6.863281 14.113281 -7.382812 15.0625 -8.09375 C 16.007812 -8.8125 16.769531 -9.8125 17.34375 -11.09375 C 17.914062 -12.375 18.203125 -14 18.203125 -15.96875 C 18.203125 -18.488281 17.675781 -20.515625 16.625 -22.046875 C 15.570312 -23.578125 14.132812 -24.664062 12.3125 -25.3125 C 10.488281 -25.96875 8.421875 -26.226562 6.109375 -26.09375 L 6.109375 -19.03125 L 0 -19.03125 L 0 -31.5625 C 0 -31.800781 0.144531 -31.921875 0.4375 -31.921875 Z M 5.671875 -31.921875 "/></g></g></g></g></g></g></g><g clip-path="url(#b55ee851db)"><g transform="matrix(1, 0, 0, 1, 175, -0.000000000000011546)"><g clip-path="url(#4d29b5d1d5)"><g clip-path="url(#8d658c92fc)"><g fill="#9941bf" fill-opacity="1"><g transform="translate(0.846102, 44.348456)"><g><path d="M 15.171875 -5.953125 L 15.171875 0 L 0.4375 0 C 0.144531 0 0 -0.117188 0 -0.359375 L 0 -31.5625 C 0 -31.800781 0.144531 -31.921875 0.4375 -31.921875 L 15.171875 -31.921875 L 15.171875 -26.140625 L 6.109375 -26.140625 L 6.109375 -18.921875 L 18.640625 -18.921875 C 18.929688 -18.921875 19.078125 -18.800781 19.078125 -18.5625 L 19.078125 -13.484375 C 19.078125 -13.242188 18.929688 -13.125 18.640625 -13.125 L 6.109375 -13.125 L 6.109375 -5.953125 Z M 15.171875 -5.953125 "/></g></g></g></g></g></g></g><g clip-path="url(#524aff8eae)"><g transform="matrix(1, 0, 0, 1, 197, -0.000000000000011546)"><g clip-path="url(#857936ff2c)"><g fill="#9941bf" fill-opacity="1"><g transform="translate(2.338592, 43.708095)"><g><path d="M 16.640625 -25.984375 L 22.78125 -25.984375 L 12.8125 -0.203125 C 12.757812 -0.0664062 12.640625 0 12.453125 0 C 12.265625 0 12.128906 -0.0664062 12.046875 -0.203125 L 0.046875 -31.453125 C -0.015625 -31.578125 -0.015625 -31.6875 0.046875 -31.78125 C 0.117188 -31.875 0.238281 -31.921875 0.40625 -31.921875 L 5.828125 -31.921875 C 6.066406 -31.921875 6.195312 -31.84375 6.21875 -31.6875 L 12.453125 -14.28125 Z M 16.640625 -25.984375 "/></g></g></g></g></g></g></g></g></svg>