<svg xmlns="http://www.w3.org/2000/svg" xmlns:xlink="http://www.w3.org/1999/xlink" width="300" zoomAndPan="magnify" viewBox="0 0 224.87999 60" height="80" preserveAspectRatio="xMidYMid meet" version="1.0"><defs><filter x="0%" y="0%" width="100%" height="100%" id="bfdd2e2a44"><feColorMatrix values="0 0 0 0 1 0 0 0 0 1 0 0 0 0 1 0 0 0 1 0" color-interpolation-filters="sRGB"/></filter><g/><mask id="162e5c9387"><g filter="url(#bfdd2e2a44)"><rect x="-22.487999" width="269.855988" fill="#000000" y="-6" height="72" fill-opacity="0.85"/></g></mask><clipPath id="fb932af040"><path d="M 0.101562 0.371094 L 159.136719 0.371094 L 159.136719 46.90625 L 0.101562 46.90625 Z M 0.101562 0.371094 " clip-rule="nonzero"/></clipPath><clipPath id="90515048fe"><path d="M 35 0.371094 L 48 0.371094 L 48 43 L 35 43 Z M 35 0.371094 " clip-rule="nonzero"/></clipPath><clipPath id="a8c5c7bb4d"><rect x="0" width="160" y="0" height="47"/></clipPath><clipPath id="19cc537fec"><rect x="0" width="160" y="0" height="47"/></clipPath></defs><g mask="url(#162e5c9387)"><g transform="matrix(1, 0, 0, 1, 33, 9)"><g clip-path="url(#19cc537fec)"><g clip-path="url(#fb932af040)"><g transform="matrix(1, 0, 0, 1, 0.000000000000007105, -0.000000000000010658)"><g clip-path="url(#a8c5c7bb4d)"><g fill="#000000" fill-opacity="1"><g transform="translate(0.855763, 32.961431)"><g><path d="M 10.234375 -31.84375 L 10.234375 -10.875 C 10.234375 -9.65625 10.503906 -8.8125 11.046875 -8.34375 C 11.597656 -7.875 12.617188 -7.640625 14.109375 -7.640625 L 19.703125 -7.640625 L 19.703125 0 L 13.375 0 C 9.582031 0 6.789062 -0.800781 5 -2.40625 C 3.21875 -4.019531 2.328125 -6.570312 2.328125 -10.0625 L 2.328125 -31.84375 Z M 10.234375 -31.84375 "/></g></g></g><g fill="#000000" fill-opacity="1"><g transform="translate(17.507925, 32.961431)"><g><path d="M 8.875 -22.109375 L 8.875 -9.328125 C 8.875 -8.472656 9.082031 -7.765625 9.5 -7.203125 C 9.925781 -6.648438 10.550781 -6.375 11.375 -6.375 C 12.195312 -6.375 12.816406 -6.648438 13.234375 -7.203125 C 13.660156 -7.765625 13.875 -8.472656 13.875 -9.328125 L 13.875 -22.109375 L 20.890625 -22.109375 L 20.890625 -9.28125 C 20.890625 -7.851562 20.675781 -6.539062 20.25 -5.34375 C 19.820312 -4.144531 19.207031 -3.113281 18.40625 -2.25 C 17.601562 -1.382812 16.609375 -0.703125 15.421875 -0.203125 C 14.242188 0.296875 12.894531 0.546875 11.375 0.546875 C 9.851562 0.546875 8.5 0.304688 7.3125 -0.171875 C 6.132812 -0.660156 5.144531 -1.34375 4.34375 -2.21875 C 3.539062 -3.101562 2.925781 -4.144531 2.5 -5.34375 C 2.070312 -6.539062 1.859375 -7.851562 1.859375 -9.28125 L 1.859375 -22.109375 Z M 8.875 -22.109375 "/></g></g></g><g clip-path="url(#90515048fe)"><g fill="#000000" fill-opacity="1"><g transform="translate(36.708082, 32.961431)"><g><path d="M 10.328125 -28.25 C 10.328125 -27.070312 9.925781 -26.085938 9.125 -25.296875 C 8.320312 -24.503906 7.34375 -24.109375 6.1875 -24.109375 C 5.03125 -24.109375 4.050781 -24.503906 3.25 -25.296875 C 2.445312 -26.085938 2.046875 -27.070312 2.046875 -28.25 C 2.046875 -29.4375 2.445312 -30.421875 3.25 -31.203125 C 4.050781 -31.992188 5.03125 -32.390625 6.1875 -32.390625 C 7.34375 -32.390625 8.320312 -31.992188 9.125 -31.203125 C 9.925781 -30.421875 10.328125 -29.4375 10.328125 -28.25 Z M 9.828125 -22.109375 L 9.828125 0.8125 C 9.828125 2.425781 9.632812 3.804688 9.25 4.953125 C 8.875 6.109375 8.238281 7.050781 7.34375 7.78125 C 6.445312 8.507812 5.269531 9.046875 3.8125 9.390625 C 2.363281 9.742188 0.546875 9.921875 -1.640625 9.921875 L -1.640625 3.1875 C -0.816406 3.1875 -0.140625 3.160156 0.390625 3.109375 C 0.921875 3.066406 1.34375 2.96875 1.65625 2.8125 C 1.976562 2.664062 2.207031 2.441406 2.34375 2.140625 C 2.476562 1.835938 2.546875 1.410156 2.546875 0.859375 L 2.546875 -22.109375 Z M 9.828125 -22.109375 "/></g></g></g></g><g fill="#000000" fill-opacity="1"><g transform="translate(45.80727, 32.961431)"><g><path d="M 25.9375 0 L 18.65625 0 L 18.65625 -10.375 C 18.65625 -12.195312 18.226562 -13.59375 17.375 -14.5625 C 16.53125 -15.53125 15.242188 -16.015625 13.515625 -16.015625 C 12.847656 -16.015625 12.207031 -15.882812 11.59375 -15.625 C 10.988281 -15.375 10.457031 -15.035156 10 -14.609375 C 9.550781 -14.179688 9.191406 -13.671875 8.921875 -13.078125 C 8.648438 -12.484375 8.515625 -11.851562 8.515625 -11.1875 C 8.515625 -9.644531 8.972656 -8.410156 9.890625 -7.484375 C 10.816406 -6.554688 11.976562 -6.09375 13.375 -6.09375 C 14.039062 -6.09375 14.660156 -6.15625 15.234375 -6.28125 C 15.816406 -6.40625 16.347656 -6.554688 16.828125 -6.734375 L 16.828125 -0.734375 C 16.128906 -0.242188 15.382812 0.0859375 14.59375 0.265625 C 13.8125 0.453125 12.921875 0.546875 11.921875 0.546875 C 10.554688 0.546875 9.226562 0.265625 7.9375 -0.296875 C 6.644531 -0.859375 5.503906 -1.644531 4.515625 -2.65625 C 3.535156 -3.675781 2.742188 -4.890625 2.140625 -6.296875 C 1.535156 -7.710938 1.234375 -9.285156 1.234375 -11.015625 C 1.234375 -12.648438 1.535156 -14.171875 2.140625 -15.578125 C 2.742188 -16.992188 3.578125 -18.222656 4.640625 -19.265625 C 5.703125 -20.316406 6.972656 -21.144531 8.453125 -21.75 C 9.941406 -22.351562 11.582031 -22.65625 13.375 -22.65625 C 15.289062 -22.65625 17.019531 -22.390625 18.5625 -21.859375 C 20.113281 -21.328125 21.429688 -20.59375 22.515625 -19.65625 C 23.609375 -18.71875 24.453125 -17.601562 25.046875 -16.3125 C 25.640625 -15.019531 25.9375 -13.617188 25.9375 -12.109375 Z M 25.9375 0 "/></g></g></g><g fill="#000000" fill-opacity="1"><g transform="translate(70.057905, 32.961431)"><g><path d="M 20.890625 0 L 13.875 0 L 13.875 -12.78125 C 13.875 -13.632812 13.660156 -14.34375 13.234375 -14.90625 C 12.816406 -15.46875 12.195312 -15.75 11.375 -15.75 C 10.550781 -15.75 9.925781 -15.46875 9.5 -14.90625 C 9.082031 -14.34375 8.875 -13.632812 8.875 -12.78125 L 8.875 0 L 1.859375 0 L 1.859375 -12.828125 C 1.859375 -14.253906 2.070312 -15.566406 2.5 -16.765625 C 2.925781 -17.960938 3.546875 -19 4.359375 -19.875 C 5.179688 -20.757812 6.175781 -21.441406 7.34375 -21.921875 C 8.507812 -22.410156 9.851562 -22.65625 11.375 -22.65625 C 12.894531 -22.65625 14.242188 -22.40625 15.421875 -21.90625 C 16.609375 -21.40625 17.601562 -20.722656 18.40625 -19.859375 C 19.207031 -18.992188 19.820312 -17.953125 20.25 -16.734375 C 20.675781 -15.523438 20.890625 -14.222656 20.890625 -12.828125 Z M 20.890625 0 "/></g></g></g><g fill="#9941bf" fill-opacity="1"><g transform="translate(89.261961, 32.961431)"><g><path d="M 10.921875 -31.84375 C 13.441406 -31.84375 15.769531 -31.457031 17.90625 -30.6875 C 20.039062 -29.914062 21.878906 -28.820312 23.421875 -27.40625 C 24.972656 -26 26.1875 -24.300781 27.0625 -22.3125 C 27.945312 -20.332031 28.390625 -18.113281 28.390625 -15.65625 C 28.390625 -13.375 27.992188 -11.273438 27.203125 -9.359375 C 26.421875 -7.453125 25.320312 -5.804688 23.90625 -4.421875 C 22.5 -3.046875 20.816406 -1.960938 18.859375 -1.171875 C 16.898438 -0.390625 14.753906 0 12.421875 0 L 12.421875 -7.640625 C 13.578125 -7.640625 14.640625 -7.867188 15.609375 -8.328125 C 16.578125 -8.785156 17.410156 -9.375 18.109375 -10.09375 C 18.804688 -10.820312 19.34375 -11.664062 19.71875 -12.625 C 20.101562 -13.582031 20.296875 -14.5625 20.296875 -15.5625 C 20.296875 -18.289062 19.4375 -20.40625 17.71875 -21.90625 C 16.007812 -23.40625 13.609375 -24.171875 10.515625 -24.203125 L 10.515625 0 L 2.59375 0 L 2.59375 -31.84375 Z M 10.921875 -31.84375 "/></g></g></g><g fill="#9941bf" fill-opacity="1"><g transform="translate(116.060588, 32.961431)"><g><path d="M 12.375 -8.046875 L 9.59375 -12.421875 L 15.5625 -16.328125 C 15.039062 -16.640625 14.550781 -16.847656 14.09375 -16.953125 C 13.644531 -17.054688 13.191406 -17.109375 12.734375 -17.109375 C 12.035156 -17.109375 11.40625 -16.945312 10.84375 -16.625 C 10.289062 -16.3125 9.804688 -15.890625 9.390625 -15.359375 C 8.984375 -14.828125 8.664062 -14.21875 8.4375 -13.53125 C 8.207031 -12.851562 8.09375 -12.148438 8.09375 -11.421875 C 8.09375 -10.628906 8.226562 -9.898438 8.5 -9.234375 C 8.78125 -8.566406 9.144531 -7.972656 9.59375 -7.453125 C 10.050781 -6.941406 10.578125 -6.539062 11.171875 -6.25 C 11.765625 -5.96875 12.378906 -5.828125 13.015625 -5.828125 C 14.285156 -5.828125 15.523438 -6.285156 16.734375 -7.203125 C 17.953125 -8.128906 18.878906 -9.320312 19.515625 -10.78125 L 24.75 -8.09375 C 24.207031 -6.789062 23.507812 -5.609375 22.65625 -4.546875 C 21.8125 -3.484375 20.859375 -2.570312 19.796875 -1.8125 C 18.734375 -1.0625 17.585938 -0.476562 16.359375 -0.0625 C 15.128906 0.34375 13.847656 0.546875 12.515625 0.546875 C 10.960938 0.546875 9.492188 0.238281 8.109375 -0.375 C 6.734375 -1 5.519531 -1.847656 4.46875 -2.921875 C 3.425781 -4.003906 2.601562 -5.242188 2 -6.640625 C 1.394531 -8.035156 1.09375 -9.507812 1.09375 -11.0625 C 1.09375 -12.601562 1.394531 -14.070312 2 -15.46875 C 2.601562 -16.863281 3.425781 -18.09375 4.46875 -19.15625 C 5.519531 -20.21875 6.734375 -21.066406 8.109375 -21.703125 C 9.492188 -22.335938 10.960938 -22.65625 12.515625 -22.65625 C 15.054688 -22.65625 17.195312 -22.019531 18.9375 -20.75 C 20.6875 -19.476562 22.15625 -17.765625 23.34375 -15.609375 Z M 12.375 -8.046875 "/></g></g></g><g fill="#9941bf" fill-opacity="1"><g transform="translate(137.808737, 32.961431)"><g><path d="M 7.046875 -22.109375 L 10.09375 -7.546875 L 10.1875 -7.546875 L 13.109375 -22.109375 L 20.515625 -22.109375 L 15.609375 -5.453125 C 15.304688 -4.453125 15 -3.609375 14.6875 -2.921875 C 14.382812 -2.242188 14.066406 -1.679688 13.734375 -1.234375 C 13.160156 -0.472656 12.570312 0.0078125 11.96875 0.21875 C 11.363281 0.4375 10.738281 0.546875 10.09375 0.546875 C 9.488281 0.546875 8.890625 0.46875 8.296875 0.3125 C 7.710938 0.164062 7.160156 -0.117188 6.640625 -0.546875 C 6.160156 -0.972656 5.726562 -1.546875 5.34375 -2.265625 C 4.96875 -2.992188 4.613281 -3.984375 4.28125 -5.234375 L -0.265625 -22.109375 Z M 7.046875 -22.109375 "/></g></g></g></g></g></g></g></g></g></svg>