<svg xmlns="http://www.w3.org/2000/svg" xmlns:xlink="http://www.w3.org/1999/xlink" width="166" zoomAndPan="magnify" viewBox="0 0 124.5 93.749997" height="125" preserveAspectRatio="xMidYMid meet" version="1.2"><defs><filter x="0%" y="0%" width="100%" filterUnits="objectBoundingBox" id="511bcaf5e0" height="100%"><feColorMatrix values="0 0 0 0 1 0 0 0 0 1 0 0 0 0 1 0 0 0 1 0" type="matrix" in="SourceGraphic"/></filter><clipPath id="587d300e1d"><rect x="0" width="95" y="0" height="55"/></clipPath></defs><g id="2a15b57e09"><g mask="url(#d3d66d93cb)" transform="matrix(1,0,0,1,14,18)"><g clip-path="url(#587d300e1d)"><g style="fill:#000000;fill-opacity:1;"><g transform="translate(0.450046, 37.830463)"><path style="stroke:none" d="M 11.21875 -35.84375 L 11.21875 0 L 3.015625 0 L 3.015625 -35.84375 Z M 11.21875 -35.84375 "/></g></g><g style="fill:#000000;fill-opacity:1;"><g transform="translate(10.686258, 37.830463)"><path style="stroke:none" d="M 9.984375 -24.890625 L 9.984375 -10.5 C 9.984375 -9.539062 10.222656 -8.742188 10.703125 -8.109375 C 11.179688 -7.484375 11.878906 -7.171875 12.796875 -7.171875 C 13.722656 -7.171875 14.421875 -7.484375 14.890625 -8.109375 C 15.367188 -8.742188 15.609375 -9.539062 15.609375 -10.5 L 15.609375 -24.890625 L 23.5 -24.890625 L 23.5 -10.453125 C 23.5 -8.835938 23.257812 -7.359375 22.78125 -6.015625 C 22.300781 -4.671875 21.609375 -3.507812 20.703125 -2.53125 C 19.804688 -1.5625 18.691406 -0.796875 17.359375 -0.234375 C 16.023438 0.328125 14.503906 0.609375 12.796875 0.609375 C 11.085938 0.609375 9.566406 0.335938 8.234375 -0.203125 C 6.910156 -0.753906 5.796875 -1.523438 4.890625 -2.515625 C 3.984375 -3.503906 3.289062 -4.671875 2.8125 -6.015625 C 2.332031 -7.359375 2.09375 -8.835938 2.09375 -10.453125 L 2.09375 -24.890625 Z M 9.984375 -24.890625 "/></g></g><g style="fill:#000000;fill-opacity:1;"><g transform="translate(32.286098, 37.830463)"><path style="stroke:none" d="M 11.625 -31.796875 C 11.625 -30.460938 11.171875 -29.351562 10.265625 -28.46875 C 9.359375 -27.582031 8.257812 -27.140625 6.96875 -27.140625 C 5.664062 -27.140625 4.5625 -27.582031 3.65625 -28.46875 C 2.75 -29.351562 2.296875 -30.460938 2.296875 -31.796875 C 2.296875 -33.128906 2.75 -34.238281 3.65625 -35.125 C 4.5625 -36.007812 5.664062 -36.453125 6.96875 -36.453125 C 8.257812 -36.453125 9.359375 -36.007812 10.265625 -35.125 C 11.171875 -34.238281 11.625 -33.128906 11.625 -31.796875 Z M 11.0625 -24.890625 L 11.0625 0.921875 C 11.0625 2.734375 10.847656 4.285156 10.421875 5.578125 C 9.992188 6.878906 9.273438 7.9375 8.265625 8.75 C 7.265625 9.570312 5.941406 10.175781 4.296875 10.5625 C 2.660156 10.957031 0.613281 11.15625 -1.84375 11.15625 L -1.84375 3.578125 C -0.914062 3.578125 -0.15625 3.550781 0.4375 3.5 C 1.03125 3.457031 1.503906 3.347656 1.859375 3.171875 C 2.222656 3.003906 2.484375 2.75 2.640625 2.40625 C 2.796875 2.0625 2.875 1.582031 2.875 0.96875 L 2.875 -24.890625 Z M 11.0625 -24.890625 "/></g></g><g style="fill:#000000;fill-opacity:1;"><g transform="translate(42.52231, 37.830463)"><path style="stroke:none" d="M 29.1875 0 L 21 0 L 21 -11.671875 C 21 -13.722656 20.519531 -15.296875 19.5625 -16.390625 C 18.601562 -17.484375 17.148438 -18.03125 15.203125 -18.03125 C 14.453125 -18.03125 13.734375 -17.882812 13.046875 -17.59375 C 12.367188 -17.300781 11.773438 -16.914062 11.265625 -16.4375 C 10.753906 -15.957031 10.34375 -15.382812 10.03125 -14.71875 C 9.726562 -14.050781 9.578125 -13.34375 9.578125 -12.59375 C 9.578125 -10.851562 10.097656 -9.460938 11.140625 -8.421875 C 12.179688 -7.378906 13.484375 -6.859375 15.046875 -6.859375 C 15.804688 -6.859375 16.507812 -6.925781 17.15625 -7.0625 C 17.800781 -7.195312 18.394531 -7.367188 18.9375 -7.578125 L 18.9375 -0.8125 C 18.15625 -0.269531 17.320312 0.0976562 16.4375 0.296875 C 15.550781 0.503906 14.546875 0.609375 13.421875 0.609375 C 11.878906 0.609375 10.382812 0.296875 8.9375 -0.328125 C 7.488281 -0.960938 6.207031 -1.847656 5.09375 -2.984375 C 3.988281 -4.128906 3.09375 -5.492188 2.40625 -7.078125 C 1.71875 -8.671875 1.375 -10.441406 1.375 -12.390625 C 1.375 -14.234375 1.71875 -15.945312 2.40625 -17.53125 C 3.09375 -19.125 4.03125 -20.507812 5.21875 -21.6875 C 6.414062 -22.863281 7.847656 -23.789062 9.515625 -24.46875 C 11.191406 -25.15625 13.035156 -25.5 15.046875 -25.5 C 17.203125 -25.5 19.148438 -25.195312 20.890625 -24.59375 C 22.628906 -24 24.113281 -23.171875 25.34375 -22.109375 C 26.570312 -21.054688 27.519531 -19.804688 28.1875 -18.359375 C 28.851562 -16.910156 29.1875 -15.332031 29.1875 -13.625 Z M 29.1875 0 "/></g></g><g style="fill:#000000;fill-opacity:1;"><g transform="translate(69.803975, 37.830463)"><path style="stroke:none" d="M 23.5 0 L 15.609375 0 L 15.609375 -14.390625 C 15.609375 -15.347656 15.367188 -16.140625 14.890625 -16.765625 C 14.421875 -17.398438 13.722656 -17.71875 12.796875 -17.71875 C 11.878906 -17.71875 11.179688 -17.398438 10.703125 -16.765625 C 10.222656 -16.140625 9.984375 -15.347656 9.984375 -14.390625 L 9.984375 0 L 2.09375 0 L 2.09375 -14.4375 C 2.09375 -16.039062 2.332031 -17.515625 2.8125 -18.859375 C 3.289062 -20.210938 3.988281 -21.382812 4.90625 -22.375 C 5.832031 -23.363281 6.953125 -24.128906 8.265625 -24.671875 C 9.578125 -25.222656 11.085938 -25.5 12.796875 -25.5 C 14.503906 -25.5 16.023438 -25.21875 17.359375 -24.65625 C 18.691406 -24.09375 19.804688 -23.320312 20.703125 -22.34375 C 21.609375 -21.375 22.300781 -20.207031 22.78125 -18.84375 C 23.257812 -17.476562 23.5 -16.007812 23.5 -14.4375 Z M 23.5 0 "/></g></g></g><mask id="d3d66d93cb"><g filter="url(#511bcaf5e0)"><rect x="0" width="124.5" y="0" height="93.749997" style="fill:#000000;fill-opacity:0.85;stroke:none;"/></g></mask></g><g style="fill:#000000;fill-opacity:1;"><g transform="translate(18.009252, 77.517451)"><path style="stroke:none" d="M 2.359375 0 L 2.359375 -4.375 L 0.03125 -4.375 L 0.03125 -4.890625 L 5.265625 -4.890625 L 5.265625 -4.375 L 2.9375 -4.375 L 2.9375 0 Z M 2.359375 0 "/></g></g><g style="fill:#000000;fill-opacity:1;"><g transform="translate(23.837821, 77.517451)"><path style="stroke:none" d="M 2.234375 0.140625 C 1.609375 0.140625 1.117188 -0.015625 0.765625 -0.328125 C 0.421875 -0.640625 0.25 -1.066406 0.25 -1.609375 L 0.25 -3.5 L 0.78125 -3.5 L 0.78125 -1.671875 C 0.78125 -1.253906 0.914062 -0.925781 1.1875 -0.6875 C 1.46875 -0.457031 1.851562 -0.34375 2.34375 -0.34375 C 2.945312 -0.34375 3.421875 -0.488281 3.765625 -0.78125 C 4.109375 -1.082031 4.28125 -1.492188 4.28125 -2.015625 L 4.28125 -3.5 L 4.8125 -3.5 L 4.8125 0 L 4.328125 0 L 4.28125 -0.859375 L 4.265625 -0.859375 C 4.109375 -0.546875 3.847656 -0.300781 3.484375 -0.125 C 3.128906 0.0507812 2.710938 0.140625 2.234375 0.140625 Z M 2.234375 0.140625 "/></g></g><g style="fill:#000000;fill-opacity:1;"><g transform="translate(29.44435, 77.517451)"><path style="stroke:none" d=""/></g></g><g style="fill:#000000;fill-opacity:1;"><g transform="translate(32.13659, 77.517451)"><path style="stroke:none" d="M 2.65625 0.140625 C 2.164062 0.140625 1.734375 0.0625 1.359375 -0.09375 C 0.992188 -0.25 0.707031 -0.46875 0.5 -0.75 C 0.300781 -1.039062 0.203125 -1.375 0.203125 -1.75 C 0.203125 -2.125 0.304688 -2.453125 0.515625 -2.734375 C 0.722656 -3.023438 1.007812 -3.25 1.375 -3.40625 C 1.738281 -3.5625 2.160156 -3.640625 2.640625 -3.640625 C 2.992188 -3.640625 3.316406 -3.59375 3.609375 -3.5 C 3.910156 -3.40625 4.164062 -3.273438 4.375 -3.109375 C 4.59375 -2.941406 4.75 -2.75 4.84375 -2.53125 L 4.359375 -2.34375 C 4.253906 -2.59375 4.050781 -2.796875 3.75 -2.953125 C 3.457031 -3.109375 3.101562 -3.1875 2.6875 -3.1875 C 2.3125 -3.1875 1.972656 -3.125 1.671875 -3 C 1.378906 -2.882812 1.148438 -2.71875 0.984375 -2.5 C 0.816406 -2.28125 0.734375 -2.03125 0.734375 -1.75 C 0.734375 -1.457031 0.816406 -1.203125 0.984375 -0.984375 C 1.148438 -0.773438 1.378906 -0.609375 1.671875 -0.484375 C 1.972656 -0.367188 2.320312 -0.3125 2.71875 -0.3125 C 3.050781 -0.3125 3.359375 -0.359375 3.640625 -0.453125 C 3.929688 -0.554688 4.175781 -0.695312 4.375 -0.875 C 4.582031 -1.050781 4.722656 -1.253906 4.796875 -1.484375 L 5.3125 -1.3125 C 5.195312 -1.03125 5.007812 -0.78125 4.75 -0.5625 C 4.488281 -0.34375 4.175781 -0.171875 3.8125 -0.046875 C 3.457031 0.078125 3.070312 0.140625 2.65625 0.140625 Z M 2.65625 0.140625 "/></g></g><g style="fill:#000000;fill-opacity:1;"><g transform="translate(38.103928, 77.517451)"><path style="stroke:none" d="M 2.75 -4.15625 L 2.609375 -4.359375 L 4.03125 -5.3125 L 4.1875 -5.09375 Z M 2.765625 0.140625 C 2.253906 0.140625 1.804688 0.0625 1.421875 -0.09375 C 1.035156 -0.25 0.734375 -0.46875 0.515625 -0.75 C 0.304688 -1.03125 0.203125 -1.363281 0.203125 -1.75 C 0.203125 -2.132812 0.304688 -2.46875 0.515625 -2.75 C 0.734375 -3.03125 1.035156 -3.25 1.421875 -3.40625 C 1.804688 -3.5625 2.253906 -3.640625 2.765625 -3.640625 C 3.285156 -3.640625 3.738281 -3.5625 4.125 -3.40625 C 4.507812 -3.25 4.804688 -3.03125 5.015625 -2.75 C 5.222656 -2.46875 5.328125 -2.132812 5.328125 -1.75 C 5.328125 -1.363281 5.222656 -1.03125 5.015625 -0.75 C 4.804688 -0.46875 4.507812 -0.25 4.125 -0.09375 C 3.738281 0.0625 3.285156 0.140625 2.765625 0.140625 Z M 2.765625 -0.34375 C 3.179688 -0.34375 3.539062 -0.398438 3.84375 -0.515625 C 4.144531 -0.628906 4.378906 -0.789062 4.546875 -1 C 4.710938 -1.21875 4.796875 -1.46875 4.796875 -1.75 C 4.796875 -2.03125 4.710938 -2.273438 4.546875 -2.484375 C 4.378906 -2.703125 4.144531 -2.867188 3.84375 -2.984375 C 3.539062 -3.097656 3.179688 -3.15625 2.765625 -3.15625 C 2.359375 -3.15625 2 -3.097656 1.6875 -2.984375 C 1.382812 -2.867188 1.148438 -2.703125 0.984375 -2.484375 C 0.816406 -2.273438 0.734375 -2.03125 0.734375 -1.75 C 0.734375 -1.46875 0.816406 -1.21875 0.984375 -1 C 1.148438 -0.789062 1.382812 -0.628906 1.6875 -0.515625 C 2 -0.398438 2.359375 -0.34375 2.765625 -0.34375 Z M 2.765625 -0.34375 "/></g></g><g style="fill:#000000;fill-opacity:1;"><g transform="translate(44.168417, 77.517451)"><path style="stroke:none" d="M 2.71875 0.140625 C 2.21875 0.140625 1.78125 0.0625 1.40625 -0.09375 C 1.03125 -0.25 0.734375 -0.46875 0.515625 -0.75 C 0.304688 -1.039062 0.203125 -1.375 0.203125 -1.75 C 0.203125 -2.125 0.304688 -2.453125 0.515625 -2.734375 C 0.722656 -3.023438 1.015625 -3.25 1.390625 -3.40625 C 1.765625 -3.5625 2.203125 -3.640625 2.703125 -3.640625 C 3.023438 -3.640625 3.320312 -3.597656 3.59375 -3.515625 C 3.875 -3.441406 4.113281 -3.332031 4.3125 -3.1875 C 4.519531 -3.050781 4.675781 -2.890625 4.78125 -2.703125 L 4.78125 -5.09375 L 5.328125 -5.09375 L 5.328125 0 L 4.859375 0 L 4.796875 -0.8125 C 4.691406 -0.613281 4.535156 -0.441406 4.328125 -0.296875 C 4.128906 -0.160156 3.890625 -0.0546875 3.609375 0.015625 C 3.335938 0.0976562 3.039062 0.140625 2.71875 0.140625 Z M 2.765625 -0.34375 C 3.171875 -0.34375 3.523438 -0.398438 3.828125 -0.515625 C 4.140625 -0.628906 4.378906 -0.789062 4.546875 -1 C 4.710938 -1.21875 4.796875 -1.46875 4.796875 -1.75 C 4.796875 -2.03125 4.710938 -2.273438 4.546875 -2.484375 C 4.378906 -2.691406 4.140625 -2.851562 3.828125 -2.96875 C 3.523438 -3.09375 3.171875 -3.15625 2.765625 -3.15625 C 2.367188 -3.15625 2.015625 -3.09375 1.703125 -2.96875 C 1.398438 -2.851562 1.160156 -2.691406 0.984375 -2.484375 C 0.816406 -2.273438 0.734375 -2.03125 0.734375 -1.75 C 0.734375 -1.46875 0.816406 -1.21875 0.984375 -1 C 1.160156 -0.789062 1.398438 -0.628906 1.703125 -0.515625 C 2.015625 -0.398438 2.367188 -0.34375 2.765625 -0.34375 Z M 2.765625 -0.34375 "/></g></g><g style="fill:#000000;fill-opacity:1;"><g transform="translate(50.288412, 77.517451)"><path style="stroke:none" d="M 0.625 -4.1875 C 0.507812 -4.1875 0.414062 -4.21875 0.34375 -4.28125 C 0.269531 -4.351562 0.234375 -4.453125 0.234375 -4.578125 C 0.234375 -4.691406 0.269531 -4.78125 0.34375 -4.84375 C 0.414062 -4.914062 0.507812 -4.953125 0.625 -4.953125 C 0.75 -4.953125 0.84375 -4.914062 0.90625 -4.84375 C 0.976562 -4.78125 1.015625 -4.691406 1.015625 -4.578125 C 1.015625 -4.453125 0.976562 -4.351562 0.90625 -4.28125 C 0.84375 -4.21875 0.75 -4.1875 0.625 -4.1875 Z M 0.359375 0 L 0.359375 -3.5 L 0.890625 -3.5 L 0.890625 0 Z M 0.359375 0 "/></g></g><g style="fill:#000000;fill-opacity:1;"><g transform="translate(52.064731, 77.517451)"><path style="stroke:none" d="M 2.46875 1.59375 C 1.914062 1.59375 1.414062 1.53125 0.96875 1.40625 C 0.53125 1.289062 0.164062 1.125 -0.125 0.90625 L 0.1875 0.484375 C 0.46875 0.671875 0.804688 0.820312 1.203125 0.9375 C 1.609375 1.050781 2.03125 1.109375 2.46875 1.109375 C 2.914062 1.109375 3.300781 1.046875 3.625 0.921875 C 3.945312 0.804688 4.195312 0.640625 4.375 0.421875 C 4.550781 0.203125 4.640625 -0.0546875 4.640625 -0.359375 L 4.640625 -0.71875 L 4.625 -0.71875 C 4.53125 -0.550781 4.382812 -0.398438 4.1875 -0.265625 C 3.988281 -0.140625 3.757812 -0.0390625 3.5 0.03125 C 3.238281 0.101562 2.957031 0.140625 2.65625 0.140625 C 2.175781 0.140625 1.753906 0.0625 1.390625 -0.09375 C 1.023438 -0.25 0.738281 -0.46875 0.53125 -0.75 C 0.320312 -1.039062 0.21875 -1.367188 0.21875 -1.734375 C 0.21875 -2.109375 0.316406 -2.4375 0.515625 -2.71875 C 0.722656 -3.007812 1.007812 -3.234375 1.375 -3.390625 C 1.738281 -3.554688 2.160156 -3.640625 2.640625 -3.640625 C 2.941406 -3.640625 3.222656 -3.597656 3.484375 -3.515625 C 3.753906 -3.441406 3.988281 -3.332031 4.1875 -3.1875 C 4.382812 -3.050781 4.53125 -2.894531 4.625 -2.71875 L 4.640625 -2.71875 L 4.703125 -3.5 L 5.171875 -3.5 L 5.171875 -0.359375 C 5.171875 0.046875 5.0625 0.390625 4.84375 0.671875 C 4.625 0.960938 4.3125 1.1875 3.90625 1.34375 C 3.5 1.507812 3.019531 1.59375 2.46875 1.59375 Z M 2.703125 -0.34375 C 3.085938 -0.34375 3.425781 -0.398438 3.71875 -0.515625 C 4.007812 -0.628906 4.238281 -0.789062 4.40625 -1 C 4.570312 -1.21875 4.65625 -1.460938 4.65625 -1.734375 C 4.65625 -2.023438 4.570312 -2.273438 4.40625 -2.484375 C 4.238281 -2.691406 4.007812 -2.851562 3.71875 -2.96875 C 3.425781 -3.09375 3.085938 -3.15625 2.703125 -3.15625 C 2.316406 -3.15625 1.972656 -3.09375 1.671875 -2.96875 C 1.378906 -2.851562 1.148438 -2.691406 0.984375 -2.484375 C 0.828125 -2.273438 0.75 -2.023438 0.75 -1.734375 C 0.75 -1.460938 0.832031 -1.21875 1 -1 C 1.164062 -0.789062 1.394531 -0.628906 1.6875 -0.515625 C 1.976562 -0.398438 2.316406 -0.34375 2.703125 -0.34375 Z M 2.703125 -0.34375 "/></g></g><g style="fill:#000000;fill-opacity:1;"><g transform="translate(58.032069, 77.517451)"><path style="stroke:none" d="M 2.765625 0.140625 C 2.253906 0.140625 1.804688 0.0625 1.421875 -0.09375 C 1.035156 -0.25 0.734375 -0.46875 0.515625 -0.75 C 0.304688 -1.03125 0.203125 -1.363281 0.203125 -1.75 C 0.203125 -2.132812 0.304688 -2.46875 0.515625 -2.75 C 0.734375 -3.03125 1.035156 -3.25 1.421875 -3.40625 C 1.804688 -3.5625 2.253906 -3.640625 2.765625 -3.640625 C 3.285156 -3.640625 3.738281 -3.5625 4.125 -3.40625 C 4.507812 -3.25 4.804688 -3.03125 5.015625 -2.75 C 5.222656 -2.46875 5.328125 -2.132812 5.328125 -1.75 C 5.328125 -1.363281 5.222656 -1.03125 5.015625 -0.75 C 4.804688 -0.46875 4.507812 -0.25 4.125 -0.09375 C 3.738281 0.0625 3.285156 0.140625 2.765625 0.140625 Z M 2.765625 -0.34375 C 3.179688 -0.34375 3.539062 -0.398438 3.84375 -0.515625 C 4.144531 -0.628906 4.378906 -0.789062 4.546875 -1 C 4.710938 -1.21875 4.796875 -1.46875 4.796875 -1.75 C 4.796875 -2.03125 4.710938 -2.273438 4.546875 -2.484375 C 4.378906 -2.703125 4.144531 -2.867188 3.84375 -2.984375 C 3.539062 -3.097656 3.179688 -3.15625 2.765625 -3.15625 C 2.359375 -3.15625 2 -3.097656 1.6875 -2.984375 C 1.382812 -2.867188 1.148438 -2.703125 0.984375 -2.484375 C 0.816406 -2.273438 0.734375 -2.03125 0.734375 -1.75 C 0.734375 -1.46875 0.816406 -1.21875 0.984375 -1 C 1.148438 -0.789062 1.382812 -0.628906 1.6875 -0.515625 C 2 -0.398438 2.359375 -0.34375 2.765625 -0.34375 Z M 2.765625 -0.34375 "/></g></g><g style="fill:#000000;fill-opacity:1;"><g transform="translate(64.096558, 77.517451)"><path style="stroke:none" d="M 0.21875 0.921875 L 0.296875 0.671875 C 0.410156 0.703125 0.515625 0.691406 0.609375 0.640625 C 0.710938 0.597656 0.789062 0.519531 0.84375 0.40625 C 0.894531 0.300781 0.921875 0.179688 0.921875 0.046875 C 0.765625 0.0976562 0.632812 0.0820312 0.53125 0 C 0.425781 -0.0703125 0.375 -0.171875 0.375 -0.296875 C 0.375 -0.410156 0.410156 -0.5 0.484375 -0.5625 C 0.554688 -0.632812 0.644531 -0.671875 0.75 -0.671875 C 0.875 -0.671875 0.972656 -0.617188 1.046875 -0.515625 C 1.128906 -0.410156 1.171875 -0.238281 1.171875 0 C 1.171875 0.332031 1.082031 0.582031 0.90625 0.75 C 0.726562 0.925781 0.5 0.984375 0.21875 0.921875 Z M 0.21875 0.921875 "/></g></g><g style="fill:#000000;fill-opacity:1;"><g transform="translate(66.01859, 77.517451)"><path style="stroke:none" d=""/></g></g><g style="fill:#000000;fill-opacity:1;"><g transform="translate(68.710829, 77.517451)"><path style="stroke:none" d="M 2.71875 0.140625 C 2.25 0.140625 1.890625 0.0234375 1.640625 -0.203125 C 1.390625 -0.441406 1.265625 -0.78125 1.265625 -1.21875 L 1.265625 -3.0625 L 0 -3.0625 L 0 -3.5 L 1.265625 -3.5 L 1.265625 -4.609375 L 1.796875 -4.734375 L 1.796875 -3.5 L 4.09375 -3.5 L 4.09375 -3.0625 L 1.796875 -3.0625 L 1.796875 -1.25 C 1.796875 -0.957031 1.875 -0.726562 2.03125 -0.5625 C 2.195312 -0.394531 2.425781 -0.3125 2.71875 -0.3125 C 2.96875 -0.3125 3.191406 -0.382812 3.390625 -0.53125 C 3.597656 -0.675781 3.738281 -0.863281 3.8125 -1.09375 L 4.265625 -0.875 C 4.148438 -0.570312 3.953125 -0.328125 3.671875 -0.140625 C 3.390625 0.046875 3.070312 0.140625 2.71875 0.140625 Z M 2.71875 0.140625 "/></g></g><g style="fill:#000000;fill-opacity:1;"><g transform="translate(73.616543, 77.517451)"><path style="stroke:none" d="M 2.234375 0.140625 C 1.609375 0.140625 1.117188 -0.015625 0.765625 -0.328125 C 0.421875 -0.640625 0.25 -1.066406 0.25 -1.609375 L 0.25 -3.5 L 0.78125 -3.5 L 0.78125 -1.671875 C 0.78125 -1.253906 0.914062 -0.925781 1.1875 -0.6875 C 1.46875 -0.457031 1.851562 -0.34375 2.34375 -0.34375 C 2.945312 -0.34375 3.421875 -0.488281 3.765625 -0.78125 C 4.109375 -1.082031 4.28125 -1.492188 4.28125 -2.015625 L 4.28125 -3.5 L 4.8125 -3.5 L 4.8125 0 L 4.328125 0 L 4.28125 -0.859375 L 4.265625 -0.859375 C 4.109375 -0.546875 3.847656 -0.300781 3.484375 -0.125 C 3.128906 0.0507812 2.710938 0.140625 2.234375 0.140625 Z M 2.234375 0.140625 "/></g></g><g style="fill:#000000;fill-opacity:1;"><g transform="translate(79.223072, 77.517451)"><path style="stroke:none" d=""/></g></g><g style="fill:#000000;fill-opacity:1;"><g transform="translate(81.915311, 77.517451)"><path style="stroke:none" d="M 2.84375 0.140625 C 2.34375 0.140625 1.890625 0.0546875 1.484375 -0.109375 C 1.085938 -0.273438 0.773438 -0.503906 0.546875 -0.796875 C 0.316406 -1.085938 0.203125 -1.421875 0.203125 -1.796875 C 0.203125 -2.148438 0.304688 -2.460938 0.515625 -2.734375 C 0.734375 -3.015625 1.023438 -3.234375 1.390625 -3.390625 C 1.753906 -3.554688 2.175781 -3.640625 2.65625 -3.640625 C 3.125 -3.640625 3.539062 -3.554688 3.90625 -3.390625 C 4.269531 -3.234375 4.554688 -3.015625 4.765625 -2.734375 C 4.972656 -2.460938 5.078125 -2.144531 5.078125 -1.78125 C 5.078125 -1.75 5.070312 -1.707031 5.0625 -1.65625 C 5.0625 -1.601562 5.0625 -1.5625 5.0625 -1.53125 L 0.8125 -1.53125 C 0.851562 -1.300781 0.96875 -1.097656 1.15625 -0.921875 C 1.34375 -0.753906 1.585938 -0.617188 1.890625 -0.515625 C 2.203125 -0.421875 2.539062 -0.375 2.90625 -0.375 C 3.195312 -0.375 3.476562 -0.40625 3.75 -0.46875 C 4.019531 -0.53125 4.265625 -0.613281 4.484375 -0.71875 C 4.710938 -0.820312 4.890625 -0.945312 5.015625 -1.09375 L 5.328125 -0.703125 C 5.160156 -0.546875 4.945312 -0.398438 4.6875 -0.265625 C 4.4375 -0.140625 4.148438 -0.0390625 3.828125 0.03125 C 3.503906 0.101562 3.175781 0.140625 2.84375 0.140625 Z M 0.8125 -2 L 4.5 -2 C 4.476562 -2.238281 4.378906 -2.441406 4.203125 -2.609375 C 4.035156 -2.773438 3.8125 -2.898438 3.53125 -2.984375 C 3.257812 -3.078125 2.957031 -3.125 2.625 -3.125 C 2.300781 -3.125 2.003906 -3.078125 1.734375 -2.984375 C 1.460938 -2.890625 1.242188 -2.753906 1.078125 -2.578125 C 0.921875 -2.410156 0.832031 -2.21875 0.8125 -2 Z M 0.8125 -2 "/></g></g><g style="fill:#000000;fill-opacity:1;"><g transform="translate(87.958978, 77.517451)"><path style="stroke:none" d="M 2.671875 0.140625 C 2.253906 0.140625 1.867188 0.0859375 1.515625 -0.015625 C 1.171875 -0.128906 0.878906 -0.28125 0.640625 -0.46875 C 0.410156 -0.65625 0.253906 -0.863281 0.171875 -1.09375 L 0.625 -1.328125 C 0.6875 -1.140625 0.8125 -0.96875 1 -0.8125 C 1.195312 -0.664062 1.4375 -0.550781 1.71875 -0.46875 C 2.007812 -0.382812 2.320312 -0.34375 2.65625 -0.34375 C 2.9375 -0.34375 3.1875 -0.367188 3.40625 -0.421875 C 3.632812 -0.472656 3.8125 -0.546875 3.9375 -0.640625 C 4.070312 -0.734375 4.140625 -0.84375 4.140625 -0.96875 C 4.140625 -1.125 4.039062 -1.242188 3.84375 -1.328125 C 3.644531 -1.410156 3.375 -1.472656 3.03125 -1.515625 L 2.015625 -1.609375 C 1.742188 -1.640625 1.492188 -1.6875 1.265625 -1.75 C 1.035156 -1.820312 0.851562 -1.921875 0.71875 -2.046875 C 0.59375 -2.179688 0.53125 -2.351562 0.53125 -2.5625 C 0.53125 -2.789062 0.609375 -2.984375 0.765625 -3.140625 C 0.921875 -3.304688 1.132812 -3.429688 1.40625 -3.515625 C 1.675781 -3.597656 1.988281 -3.640625 2.34375 -3.640625 C 2.632812 -3.640625 2.910156 -3.597656 3.171875 -3.515625 C 3.441406 -3.441406 3.675781 -3.34375 3.875 -3.21875 C 4.070312 -3.09375 4.21875 -2.941406 4.3125 -2.765625 L 3.90625 -2.484375 C 3.820312 -2.609375 3.703125 -2.722656 3.546875 -2.828125 C 3.390625 -2.941406 3.203125 -3.03125 2.984375 -3.09375 C 2.773438 -3.15625 2.554688 -3.1875 2.328125 -3.1875 C 1.960938 -3.1875 1.65625 -3.128906 1.40625 -3.015625 C 1.164062 -2.910156 1.046875 -2.773438 1.046875 -2.609375 C 1.046875 -2.441406 1.132812 -2.320312 1.3125 -2.25 C 1.488281 -2.1875 1.742188 -2.140625 2.078125 -2.109375 L 3.125 -2 C 3.40625 -1.96875 3.660156 -1.914062 3.890625 -1.84375 C 4.128906 -1.78125 4.316406 -1.679688 4.453125 -1.546875 C 4.585938 -1.421875 4.65625 -1.238281 4.65625 -1 C 4.65625 -0.757812 4.566406 -0.550781 4.390625 -0.375 C 4.222656 -0.207031 3.988281 -0.0820312 3.6875 0 C 3.394531 0.09375 3.054688 0.140625 2.671875 0.140625 Z M 2.671875 0.140625 "/></g></g><g style="fill:#000000;fill-opacity:1;"><g transform="translate(93.308773, 77.517451)"><path style="stroke:none" d="M 2.71875 0.140625 C 2.25 0.140625 1.890625 0.0234375 1.640625 -0.203125 C 1.390625 -0.441406 1.265625 -0.78125 1.265625 -1.21875 L 1.265625 -3.0625 L 0 -3.0625 L 0 -3.5 L 1.265625 -3.5 L 1.265625 -4.609375 L 1.796875 -4.734375 L 1.796875 -3.5 L 4.09375 -3.5 L 4.09375 -3.0625 L 1.796875 -3.0625 L 1.796875 -1.25 C 1.796875 -0.957031 1.875 -0.726562 2.03125 -0.5625 C 2.195312 -0.394531 2.425781 -0.3125 2.71875 -0.3125 C 2.96875 -0.3125 3.191406 -0.382812 3.390625 -0.53125 C 3.597656 -0.675781 3.738281 -0.863281 3.8125 -1.09375 L 4.265625 -0.875 C 4.148438 -0.570312 3.953125 -0.328125 3.671875 -0.140625 C 3.390625 0.046875 3.070312 0.140625 2.71875 0.140625 Z M 2.71875 0.140625 "/></g></g><g style="fill:#000000;fill-opacity:1;"><g transform="translate(98.214487, 77.517451)"><path style="stroke:none" d="M 0.625 -4.1875 C 0.507812 -4.1875 0.414062 -4.21875 0.34375 -4.28125 C 0.269531 -4.351562 0.234375 -4.453125 0.234375 -4.578125 C 0.234375 -4.691406 0.269531 -4.78125 0.34375 -4.84375 C 0.414062 -4.914062 0.507812 -4.953125 0.625 -4.953125 C 0.75 -4.953125 0.84375 -4.914062 0.90625 -4.84375 C 0.976562 -4.78125 1.015625 -4.691406 1.015625 -4.578125 C 1.015625 -4.453125 0.976562 -4.351562 0.90625 -4.28125 C 0.84375 -4.21875 0.75 -4.1875 0.625 -4.1875 Z M 0.359375 0 L 0.359375 -3.5 L 0.890625 -3.5 L 0.890625 0 Z M 0.359375 0 "/></g></g><g style="fill:#000000;fill-opacity:1;"><g transform="translate(99.990806, 77.517451)"><path style="stroke:none" d="M 0.28125 0 L 0.28125 -5.09375 L 0.8125 -5.09375 L 0.8125 0 Z M 0.28125 0 "/></g></g><g style="fill:#000000;fill-opacity:1;"><g transform="translate(101.593654, 77.517451)"><path style="stroke:none" d="M 2.765625 0.140625 C 2.253906 0.140625 1.804688 0.0625 1.421875 -0.09375 C 1.035156 -0.25 0.734375 -0.46875 0.515625 -0.75 C 0.304688 -1.03125 0.203125 -1.363281 0.203125 -1.75 C 0.203125 -2.132812 0.304688 -2.46875 0.515625 -2.75 C 0.734375 -3.03125 1.035156 -3.25 1.421875 -3.40625 C 1.804688 -3.5625 2.253906 -3.640625 2.765625 -3.640625 C 3.285156 -3.640625 3.738281 -3.5625 4.125 -3.40625 C 4.507812 -3.25 4.804688 -3.03125 5.015625 -2.75 C 5.222656 -2.46875 5.328125 -2.132812 5.328125 -1.75 C 5.328125 -1.363281 5.222656 -1.03125 5.015625 -0.75 C 4.804688 -0.46875 4.507812 -0.25 4.125 -0.09375 C 3.738281 0.0625 3.285156 0.140625 2.765625 0.140625 Z M 2.765625 -0.34375 C 3.179688 -0.34375 3.539062 -0.398438 3.84375 -0.515625 C 4.144531 -0.628906 4.378906 -0.789062 4.546875 -1 C 4.710938 -1.21875 4.796875 -1.46875 4.796875 -1.75 C 4.796875 -2.03125 4.710938 -2.273438 4.546875 -2.484375 C 4.378906 -2.703125 4.144531 -2.867188 3.84375 -2.984375 C 3.539062 -3.097656 3.179688 -3.15625 2.765625 -3.15625 C 2.359375 -3.15625 2 -3.097656 1.6875 -2.984375 C 1.382812 -2.867188 1.148438 -2.703125 0.984375 -2.484375 C 0.816406 -2.273438 0.734375 -2.03125 0.734375 -1.75 C 0.734375 -1.46875 0.816406 -1.21875 0.984375 -1 C 1.148438 -0.789062 1.382812 -0.628906 1.6875 -0.515625 C 2 -0.398438 2.359375 -0.34375 2.765625 -0.34375 Z M 2.765625 -0.34375 "/></g></g></g></svg>