<svg xmlns="http://www.w3.org/2000/svg" xmlns:xlink="http://www.w3.org/1999/xlink" width="297" zoomAndPan="magnify" viewBox="0 0 222.75 52.499999" height="70" preserveAspectRatio="xMidYMid meet" version="1.0"><defs><g/><clipPath id="0569a067c6"><path d="M 21 0.707031 L 43 0.707031 L 43 40 L 21 40 Z M 21 0.707031 " clip-rule="nonzero"/></clipPath><clipPath id="8669ce100c"><path d="M 0.34375 9 L 21 9 L 21 36 L 0.34375 36 Z M 0.34375 9 " clip-rule="nonzero"/></clipPath><clipPath id="70f92a5668"><rect x="0" width="22" y="0" height="40"/></clipPath><clipPath id="9bc8e9d6b4"><path d="M 0.183594 0.707031 L 16 0.707031 L 16 40 L 0.183594 40 Z M 0.183594 0.707031 " clip-rule="nonzero"/></clipPath><clipPath id="bfd4646a9a"><path d="M 0.183594 9 L 15.636719 9 L 15.636719 36 L 0.183594 36 Z M 0.183594 9 " clip-rule="nonzero"/></clipPath><clipPath id="a16cabc8e4"><rect x="0" width="16" y="0" height="40"/></clipPath><clipPath id="12e60ace3e"><path d="M 46 0.707031 L 59 0.707031 L 59 40 L 46 40 Z M 46 0.707031 " clip-rule="nonzero"/></clipPath><clipPath id="c56d816247"><path d="M 0.0664062 9 L 12.667969 9 L 12.667969 36 L 0.0664062 36 Z M 0.0664062 9 " clip-rule="nonzero"/></clipPath><clipPath id="6b390f1429"><rect x="0" width="13" y="0" height="40"/></clipPath><clipPath id="2d62191bce"><path d="M 62 0.707031 L 86 0.707031 L 86 40 L 62 40 Z M 62 0.707031 " clip-rule="nonzero"/></clipPath><clipPath id="851825df76"><rect x="0" width="24" y="0" height="40"/></clipPath><clipPath id="e6ce2df168"><path d="M 88 0.707031 L 112 0.707031 L 112 40 L 88 40 Z M 88 0.707031 " clip-rule="nonzero"/></clipPath><clipPath id="4e5602701c"><path d="M 1 9 L 23.917969 9 L 23.917969 36 L 1 36 Z M 1 9 " clip-rule="nonzero"/></clipPath><clipPath id="390fb291da"><rect x="0" width="24" y="0" height="40"/></clipPath><clipPath id="2acffb47bd"><path d="M 117 0.707031 L 139 0.707031 L 139 40.167969 L 117 40.167969 Z M 117 0.707031 " clip-rule="nonzero"/></clipPath><clipPath id="1d7377b6c5"><rect x="0" width="22" y="0" height="41"/></clipPath><clipPath id="996ec524f9"><path d="M 142 0.707031 L 159 0.707031 L 159 40.167969 L 142 40.167969 Z M 142 0.707031 " clip-rule="nonzero"/></clipPath><clipPath id="7bc345306b"><path d="M 0.347656 10 L 16.992188 10 L 16.992188 37 L 0.347656 37 Z M 0.347656 10 " clip-rule="nonzero"/></clipPath><clipPath id="1d69986cb3"><rect x="0" width="17" y="0" height="41"/></clipPath><clipPath id="9fcd5291a8"><path d="M 160 0.707031 L 181.339844 0.707031 L 181.339844 40 L 160 40 Z M 160 0.707031 " clip-rule="nonzero"/></clipPath><clipPath id="829dfb21d6"><rect x="0" width="22" y="0" height="40"/></clipPath><clipPath id="9959cba8d6"><rect x="0" width="182" y="0" height="41"/></clipPath></defs><g transform="matrix(1, 0, 0, 1, 20, 5)"><g clip-path="url(#9959cba8d6)"><g clip-path="url(#0569a067c6)"><g transform="matrix(1, 0, 0, 1, 21, 0)"><g clip-path="url(#70f92a5668)"><g clip-path="url(#8669ce100c)"><g fill="#1c1e23" fill-opacity="1"><g transform="translate(0.691526, 35.902227)"><g><path d="M 19.171875 -26 C 19.390625 -26 19.5 -25.898438 19.5 -25.703125 L 19.5 -8.671875 C 19.5 -6.859375 19.070312 -5.300781 18.21875 -4 C 17.363281 -2.695312 16.195312 -1.703125 14.71875 -1.015625 C 13.25 -0.335938 11.59375 0 9.75 0 C 7.96875 0 6.332031 -0.347656 4.84375 -1.046875 C 3.363281 -1.753906 2.1875 -2.757812 1.3125 -4.0625 C 0.4375 -5.363281 0 -6.898438 0 -8.671875 L 0 -21.28125 L 4.90625 -21.28125 L 4.90625 -8.703125 C 5.0625 -7.429688 5.609375 -6.457031 6.546875 -5.78125 C 7.492188 -5.113281 8.5625 -4.78125 9.75 -4.78125 C 10.570312 -4.78125 11.347656 -4.921875 12.078125 -5.203125 C 12.816406 -5.484375 13.421875 -5.914062 13.890625 -6.5 C 14.359375 -7.082031 14.59375 -7.804688 14.59375 -8.671875 L 14.59375 -25.703125 C 14.59375 -25.898438 14.710938 -26 14.953125 -26 Z M 19.171875 -26 "/></g></g></g></g></g></g></g><g clip-path="url(#9bc8e9d6b4)"><g><g clip-path="url(#a16cabc8e4)"><g clip-path="url(#bfd4646a9a)"><g fill="#1c1e23" fill-opacity="1"><g transform="translate(0.741351, 35.902227)"><g><path d="M 14.046875 -4.84375 C 14.273438 -4.84375 14.390625 -4.734375 14.390625 -4.515625 L 14.390625 -0.296875 C 14.390625 -0.0976562 14.273438 0 14.046875 0 L 0.359375 0 C 0.117188 0 0 -0.0976562 0 -0.296875 L 0 -4.84375 Z M 4.96875 -9.8125 L 0 -9.8125 L 0 -25.703125 C 0 -25.898438 0.117188 -26 0.359375 -26 L 4.640625 -26 C 4.859375 -26 4.96875 -25.898438 4.96875 -25.703125 Z M 4.96875 -9.8125 "/></g></g></g></g></g></g></g><g clip-path="url(#12e60ace3e)"><g transform="matrix(1, 0, 0, 1, 46, 0)"><g clip-path="url(#6b390f1429)"><g clip-path="url(#c56d816247)"><g fill="#1c1e23" fill-opacity="1"><g transform="translate(0.860429, 35.902227)"><g><path d="M 2.171875 -21.546875 C 1.929688 -21.546875 1.8125 -21.644531 1.8125 -21.84375 L 1.8125 -25.703125 C 1.8125 -25.898438 1.929688 -26 2.171875 -26 L 11.015625 -26 C 11.234375 -26 11.34375 -25.898438 11.34375 -25.703125 L 11.34375 -21.546875 Z M 6.40625 -17.09375 L 11.34375 -17.09375 L 11.34375 -7.671875 C 11.34375 -6.390625 11.148438 -5.3125 10.765625 -4.4375 C 10.390625 -3.5625 9.910156 -2.84375 9.328125 -2.28125 C 8.742188 -1.71875 8.117188 -1.273438 7.453125 -0.953125 C 6.796875 -0.640625 6.175781 -0.414062 5.59375 -0.28125 C 5.007812 -0.15625 4.523438 -0.078125 4.140625 -0.046875 C 3.765625 -0.015625 3.578125 0 3.578125 0 L 0.359375 0 C 0.117188 0 0 -0.0976562 0 -0.296875 L 0 -4.515625 C 0 -4.710938 0.117188 -4.8125 0.359375 -4.8125 L 3.578125 -4.8125 C 4.285156 -4.8125 4.828125 -4.957031 5.203125 -5.25 C 5.585938 -5.539062 5.867188 -5.867188 6.046875 -6.234375 C 6.222656 -6.609375 6.328125 -6.941406 6.359375 -7.234375 C 6.390625 -7.523438 6.40625 -7.671875 6.40625 -7.671875 Z M 6.40625 -17.09375 "/></g></g></g></g></g></g></g><g clip-path="url(#2d62191bce)"><g transform="matrix(1, 0, 0, 1, 62, 0)"><g clip-path="url(#851825df76)"><g fill="#1c1e23" fill-opacity="1"><g transform="translate(2.247781, 35.902227)"><g><path d="M 20.40625 -0.390625 C 20.445312 -0.304688 20.4375 -0.21875 20.375 -0.125 C 20.3125 -0.0390625 20.226562 0 20.125 0 L 15.625 0 C 15.476562 0 15.382812 -0.0625 15.34375 -0.1875 L 10.203125 -14.6875 L 5.140625 -0.1875 C 5.117188 -0.0625 5.007812 0 4.8125 0 L 0.359375 0 C 0.203125 0 0.0976562 -0.0390625 0.046875 -0.125 C -0.00390625 -0.21875 -0.0078125 -0.304688 0.03125 -0.390625 L 9.875 -25.8125 C 9.914062 -25.9375 10.023438 -26 10.203125 -26 C 10.378906 -26 10.488281 -25.9375 10.53125 -25.8125 Z M 20.40625 -0.390625 "/></g></g></g></g></g></g><g clip-path="url(#e6ce2df168)"><g transform="matrix(1, 0, 0, 1, 88, 0)"><g clip-path="url(#390fb291da)"><g clip-path="url(#4e5602701c)"><g fill="#1c1e23" fill-opacity="1"><g transform="translate(1.248562, 35.902227)"><g><path d="M 21.515625 -26 C 21.753906 -26 21.875 -25.898438 21.875 -25.703125 L 21.875 -0.296875 C 21.875 -0.0976562 21.753906 0 21.515625 0 L 17.21875 0 C 17.195312 0 17.148438 -0.0078125 17.078125 -0.03125 C 17.003906 -0.0507812 16.957031 -0.0703125 16.9375 -0.09375 L 4.96875 -17.21875 L 4.96875 -6.234375 L 0 -6.234375 L 0 -25.703125 C 0 -25.898438 0.109375 -26 0.328125 -26 L 4.640625 -26 C 4.691406 -26 4.75 -25.992188 4.8125 -25.984375 C 4.875 -25.972656 4.914062 -25.945312 4.9375 -25.90625 L 16.9375 -8.78125 L 16.9375 -25.703125 C 16.9375 -25.898438 17.066406 -26 17.328125 -26 Z M 21.515625 -26 "/></g></g></g></g></g></g></g><g clip-path="url(#2acffb47bd)"><g transform="matrix(1, 0, 0, 1, 117, 0)"><g clip-path="url(#1d7377b6c5)"><g fill="#9941bf" fill-opacity="1"><g transform="translate(1.094504, 36.423724)"><g><path d="M 4.609375 -26 C 5.867188 -26 7.203125 -25.910156 8.609375 -25.734375 C 10.015625 -25.566406 11.378906 -25.234375 12.703125 -24.734375 C 14.023438 -24.234375 15.222656 -23.503906 16.296875 -22.546875 C 17.367188 -21.597656 18.222656 -20.347656 18.859375 -18.796875 C 19.503906 -17.253906 19.828125 -15.320312 19.828125 -13 C 19.828125 -10.769531 19.507812 -8.890625 18.875 -7.359375 C 18.25 -5.828125 17.40625 -4.578125 16.34375 -3.609375 C 15.28125 -2.648438 14.082031 -1.90625 12.75 -1.375 C 11.414062 -0.84375 10.050781 -0.476562 8.65625 -0.28125 C 7.257812 -0.09375 5.910156 0 4.609375 0 L 0.359375 0 C 0.117188 0 0 -0.0976562 0 -0.296875 L 0 -10.5 L 4.96875 -10.5 L 4.96875 -4.78125 C 5.601562 -4.757812 6.34375 -4.773438 7.1875 -4.828125 C 8.03125 -4.878906 8.894531 -5.039062 9.78125 -5.3125 C 10.664062 -5.582031 11.492188 -6.007812 12.265625 -6.59375 C 13.035156 -7.175781 13.648438 -7.988281 14.109375 -9.03125 C 14.578125 -10.070312 14.8125 -11.394531 14.8125 -13 C 14.8125 -15.0625 14.382812 -16.710938 13.53125 -17.953125 C 12.675781 -19.203125 11.503906 -20.09375 10.015625 -20.625 C 8.535156 -21.15625 6.851562 -21.363281 4.96875 -21.25 L 4.96875 -15.5 L 0 -15.5 L 0 -25.703125 C 0 -25.898438 0.117188 -26 0.359375 -26 Z M 4.609375 -26 "/></g></g></g></g></g></g><g clip-path="url(#996ec524f9)"><g transform="matrix(1, 0, 0, 1, 142, 0)"><g clip-path="url(#1d69986cb3)"><g clip-path="url(#7bc345306b)"><g fill="#9941bf" fill-opacity="1"><g transform="translate(0.608644, 36.423724)"><g><path d="M 12.34375 -4.84375 L 12.34375 0 L 0.359375 0 C 0.117188 0 0 -0.0976562 0 -0.296875 L 0 -25.703125 C 0 -25.898438 0.117188 -26 0.359375 -26 L 12.34375 -26 L 12.34375 -21.28125 L 4.96875 -21.28125 L 4.96875 -15.40625 L 15.171875 -15.40625 C 15.410156 -15.40625 15.53125 -15.304688 15.53125 -15.109375 L 15.53125 -10.984375 C 15.53125 -10.785156 15.410156 -10.6875 15.171875 -10.6875 L 4.96875 -10.6875 L 4.96875 -4.84375 Z M 12.34375 -4.84375 "/></g></g></g></g></g></g></g><g clip-path="url(#9fcd5291a8)"><g transform="matrix(1, 0, 0, 1, 160, 0)"><g clip-path="url(#829dfb21d6)"><g fill="#9941bf" fill-opacity="1"><g transform="translate(1.740415, 35.902227)"><g><path d="M 13.546875 -21.15625 L 18.5625 -21.15625 L 10.4375 -0.15625 C 10.394531 -0.0507812 10.296875 0 10.140625 0 C 9.984375 0 9.875 -0.0507812 9.8125 -0.15625 L 0.03125 -25.609375 C -0.0078125 -25.710938 -0.00390625 -25.800781 0.046875 -25.875 C 0.0976562 -25.957031 0.191406 -26 0.328125 -26 L 4.75 -26 C 4.9375 -26 5.039062 -25.9375 5.0625 -25.8125 L 10.140625 -11.640625 Z M 13.546875 -21.15625 "/></g></g></g></g></g></g></g></g></svg>